<?xml version="1.0" standalone="no"?>
<!DOCTYPE svg PUBLIC "-//W3C//DTD SVG 20010904//EN"
 "http://www.w3.org/TR/2001/REC-SVG-20010904/DTD/svg10.dtd">
<svg version="1.0" xmlns="http://www.w3.org/2000/svg"
 width="800.000000pt" height="800.000000pt" viewBox="0 0 800.000000 800.000000"
 preserveAspectRatio="xMidYMid meet">

<g transform="translate(0.000000,800.000000) scale(0.100000,-0.100000)"
fill="#000000" stroke="none">
<path d="M32 5893 c5 -2036 12 -3030 23 -3122 2 -25 10 -48 17 -53 9 -5 8 -8
-5 -8 -10 0 -15 -4 -12 -10 9 -14 11 -230 3 -230 -8 0 -1 -244 8 -273 4 -12 1
-23 -7 -28 -11 -7 -11 -9 1 -9 11 0 15 -10 14 -38 -1 -20 -3 -39 -4 -42 -1 -3
-3 -67 -5 -144 -2 -89 1 -134 7 -125 6 10 7 6 2 -11 -13 -44 -13 -74 -1 -82 9
-6 9 -8 -1 -8 -7 0 -10 -5 -6 -11 11 -18 10 -109 -1 -113 -5 -2 0 -12 12 -23
27 -24 28 -30 8 -49 -8 -9 -15 -23 -14 -32 0 -14 2 -13 9 3 l8 20 7 -20 c14
-40 14 -45 1 -45 -8 0 -16 6 -19 13 -2 6 -6 -6 -9 -27 -3 -31 -1 -40 14 -44
10 -2 18 -8 18 -13 0 -5 11 -9 25 -9 25 0 33 14 15 25 -14 9 -12 45 3 45 9 0
8 3 -2 9 -8 5 -11 16 -7 29 4 12 1 26 -9 36 -15 14 -15 16 -1 16 9 0 16 5 16
11 0 7 18 10 48 9 70 -4 82 -1 82 15 0 18 -12 19 -28 3 -9 -9 -15 -9 -24 0 -9
9 -8 12 5 12 9 0 17 5 17 11 0 6 9 8 22 3 20 -6 21 -5 10 9 -7 8 -21 13 -32
10 -16 -4 -20 0 -20 22 0 14 6 33 14 41 8 7 16 19 19 26 2 7 8 9 13 5 5 -4 2
-12 -6 -17 -8 -6 -10 -10 -4 -10 21 0 35 28 32 64 -1 21 -7 36 -15 36 -7 0
-10 -7 -7 -15 4 -8 1 -15 -5 -15 -6 0 -11 5 -11 10 0 6 -13 10 -30 10 -16 0
-30 5 -30 11 0 7 10 9 25 7 14 -3 25 -2 25 2 0 4 18 7 40 7 28 0 40 -4 40 -14
0 -8 5 -11 11 -8 6 4 8 13 5 20 -2 7 1 18 7 24 9 9 2 10 -32 5 -39 -6 -44 -5
-38 9 6 17 5 18 -70 33 -28 5 -30 20 -5 28 13 5 19 17 20 42 1 20 4 45 7 55 8
25 -7 24 -23 -1 -7 -11 -19 -20 -27 -20 -21 0 -19 5 11 35 19 19 29 23 38 16
7 -6 17 -7 21 -3 5 4 5 1 1 -6 -9 -15 6 -16 22 0 18 18 15 31 -6 26 -13 -4
-25 4 -38 23 -10 16 -22 29 -26 29 -5 0 -8 8 -8 18 1 16 2 15 15 -2 8 -10 16
-24 18 -30 3 -7 12 -3 22 9 9 11 14 14 10 8 -4 -9 1 -13 15 -13 20 0 22 4 18
47 -2 27 -6 54 -9 62 -2 8 4 17 13 19 16 3 17 -4 14 -58 -1 -33 1 -63 6 -66 4
-3 8 2 8 10 0 9 7 16 15 16 21 0 29 24 16 48 -12 23 6 91 26 99 24 9 13 23
-19 24 -35 1 -32 3 17 14 26 6 27 8 12 16 -13 8 -17 21 -15 50 l3 40 59 -2
c34 -2 61 2 63 8 2 6 -16 8 -50 5 -45 -3 -55 -1 -61 13 -9 24 3 34 15 12 11
-19 34 -23 44 -7 3 5 0 19 -7 31 -10 16 -10 23 -1 26 7 2 10 10 7 17 -6 15 43
29 52 15 8 -14 34 -11 34 4 0 14 35 47 50 47 6 0 10 9 10 21 0 18 -4 20 -32
15 -25 -5 -28 -4 -13 3 15 7 16 10 5 12 -27 4 -45 6 -60 8 -11 1 -11 5 4 18
13 13 20 15 23 6 3 -7 17 -13 33 -13 15 0 33 -7 40 -15 13 -15 50 -21 50 -7 0
4 -9 13 -20 20 -21 13 -28 42 -10 42 6 0 10 -7 10 -15 0 -8 4 -15 9 -15 4 0 7
12 5 28 -2 15 -1 19 2 10 3 -10 15 -18 26 -18 17 0 18 2 8 15 -18 22 -9 27 64
32 46 4 66 2 66 -6 0 -6 6 -11 13 -11 6 1 1 9 -12 20 -12 11 -27 36 -31 55 -7
32 -6 35 15 35 17 0 22 4 18 18 -2 11 -13 18 -26 18 -18 -1 -22 5 -22 29 0 36
28 42 33 7 2 -14 14 -27 30 -34 15 -5 35 -14 45 -19 23 -12 21 -5 -7 25 -13
15 -31 26 -40 26 -9 0 -16 7 -16 15 0 8 5 15 10 15 6 0 10 6 10 14 0 23 17 28
42 14 13 -7 27 -11 32 -10 5 2 17 -5 28 -15 20 -17 20 -17 17 2 -3 12 -21 26
-49 37 -28 11 -36 17 -20 16 21 -3 26 2 28 25 2 16 10 31 18 34 19 7 18 23 -1
23 -8 0 -15 5 -15 10 0 11 56 16 128 11 39 -2 42 0 42 24 0 15 -4 24 -10 20
-6 -3 -16 0 -23 7 -16 16 -30 118 -17 118 6 0 10 -8 11 -17 0 -14 2 -13 9 5 5
12 16 22 25 22 20 0 19 -17 -2 -29 -10 -6 -13 -11 -8 -11 6 0 4 -4 -3 -8 -8
-6 -10 -19 -6 -40 5 -25 11 -32 28 -31 17 1 17 2 4 6 -21 5 -23 19 -5 26 9 4
8 8 -3 16 -13 9 -13 13 3 28 17 16 19 17 30 2 10 -13 14 -14 24 -3 7 7 21 18
30 24 13 8 14 13 6 16 -7 3 -13 10 -13 16 0 7 26 9 78 5 44 -4 83 -3 92 3 12
8 9 10 -11 10 -18 0 -28 6 -32 20 -3 11 -2 18 2 15 4 -2 21 0 37 5 21 6 23 9
9 9 -11 1 -26 5 -32 9 -14 9 -25 72 -13 72 14 0 19 -14 10 -25 -7 -9 -6 -16 5
-25 12 -10 16 -9 21 3 11 29 -1 52 -33 62 -38 13 -58 30 -26 22 13 -3 26 -1
29 4 3 5 11 9 17 9 7 0 6 -4 -3 -10 -12 -8 -11 -10 8 -10 22 0 31 23 12 35
-13 8 -13 35 0 35 6 0 10 -7 10 -15 0 -18 17 -20 23 -2 4 9 7 9 18 -1 12 -11
11 -15 -4 -24 -17 -9 -17 -11 9 -24 31 -17 40 -13 26 12 -7 12 -6 24 2 36 9
16 7 22 -8 34 -18 12 -18 14 -3 14 10 0 20 -7 23 -15 9 -21 24 -19 24 4 0 22
23 34 38 19 7 -7 14 -3 23 13 l12 23 8 -22 c10 -26 29 -29 29 -4 0 31 18 41
50 29 23 -9 33 -8 47 4 26 23 47 34 39 21 -11 -18 13 -24 35 -9 13 9 16 17 10
22 -6 3 -11 15 -11 25 0 14 6 18 25 16 26 -3 48 -16 27 -16 -7 0 -12 -4 -12
-9 0 -4 11 -6 24 -4 13 3 33 0 45 -6 16 -9 21 -9 21 0 0 7 8 18 17 25 17 13
17 13 1 14 -10 0 -18 -4 -18 -10 0 -5 -10 -10 -22 -10 l-23 0 25 20 c25 20 25
20 3 20 -13 0 -23 5 -23 10 0 6 7 10 15 10 8 0 15 5 15 10 0 6 8 10 19 10 14
0 18 6 15 29 -5 40 37 85 71 77 20 -5 24 -3 22 16 0 13 -6 26 -12 30 -14 10
-14 219 1 225 6 2 12 15 12 28 0 14 -4 22 -9 19 -5 -3 -9 0 -9 5 0 6 5 11 11
11 5 0 8 4 5 9 -3 4 -6 56 -7 115 0 58 -4 104 -8 101 -4 -2 -8 2 -8 10 0 10 5
11 19 4 11 -6 18 -6 18 0 0 5 -6 12 -12 14 -10 4 -10 8 1 15 10 7 11 14 2 31
-7 12 -17 18 -23 15 -7 -4 -8 -3 -4 5 4 6 11 9 15 6 15 -9 -2 46 -18 58 -19
15 -22 25 -28 102 -2 33 -5 71 -6 85 -1 14 9 50 22 80 45 106 50 133 36 202
-7 35 -16 71 -20 81 -11 26 58 89 94 85 21 -2 25 -7 22 -28 -1 -14 -7 -28 -13
-31 -5 -3 -2 -9 7 -12 13 -6 15 -15 9 -49 -14 -92 4 -239 20 -162 11 55 36
209 43 269 3 33 8 186 9 340 1 154 5 296 8 315 8 55 16 93 23 115 4 11 8 23 9
28 1 4 3 8 4 10 1 1 3 14 4 30 3 26 2 26 -15 11 -10 -9 -21 -25 -24 -35 -4
-11 -15 -24 -26 -29 -36 -20 -16 22 36 73 26 26 45 51 41 54 -4 4 -11 1 -16
-7 -6 -10 -10 -11 -10 -3 0 7 9 17 19 22 10 6 29 32 42 58 12 27 31 60 41 75
10 14 18 31 18 37 0 17 63 114 90 139 14 12 37 25 52 28 15 4 25 10 23 15 -3
4 -1 10 4 13 5 3 12 -2 15 -11 6 -14 9 -14 22 5 8 12 22 22 30 22 8 0 12 5 9
10 -3 6 3 10 13 10 11 0 25 7 33 16 10 12 23 14 62 9 45 -7 49 -5 43 10 -5 14
-2 17 19 13 13 -3 26 -1 27 4 2 5 51 10 108 11 95 2 113 -1 193 -30 49 -18 95
-29 103 -26 8 3 14 0 14 -7 0 -6 4 -9 9 -5 10 6 84 -25 89 -38 2 -4 8 -4 14
-1 7 4 1 14 -13 25 l-24 19 32 -11 c18 -6 30 -15 27 -20 -3 -5 2 -9 11 -9 9 0
13 5 9 11 -3 6 9 3 27 -7 18 -9 51 -18 74 -20 38 -2 39 -2 20 12 -19 14 -17
15 20 10 l40 -6 -45 17 c-35 14 -40 18 -23 21 12 2 37 -5 55 -14 32 -17 33
-16 18 1 -14 17 -13 18 5 11 11 -5 34 -12 50 -16 17 -4 38 -11 47 -15 13 -5
16 -1 13 20 -3 30 -12 29 103 10 35 -7 41 -5 37 7 -5 12 0 15 20 12 19 -2 28
3 34 18 6 18 8 18 20 4 8 -9 20 -16 27 -16 8 0 23 -4 34 -10 11 -5 29 -14 40
-20 11 -5 29 -10 40 -10 12 0 20 -6 19 -12 -3 -25 1 -38 12 -38 5 0 8 4 5 9
-3 5 1 14 9 21 13 11 14 10 9 -4 -4 -11 -1 -16 11 -16 11 0 15 -5 12 -14 -4
-10 0 -12 14 -9 15 4 19 0 20 -23 1 -24 2 -25 6 -6 5 24 23 28 52 12 13 -6 17
-17 14 -34 -4 -19 -1 -24 12 -22 9 1 20 8 24 15 7 11 41 5 41 -8 0 -4 -14 -15
-31 -25 -26 -15 -33 -16 -41 -5 -8 12 -9 11 -5 -1 2 -8 -8 -23 -22 -32 -37
-25 -13 -22 29 3 19 12 51 27 72 35 32 11 36 11 31 -2 -3 -10 0 -12 10 -8 8 3
24 -4 34 -16 12 -12 26 -18 37 -14 11 4 20 -2 29 -23 6 -17 18 -28 25 -25 7 2
12 0 11 -5 -1 -4 -1 -16 0 -26 1 -14 4 -15 21 -5 10 7 23 8 27 4 4 -5 2 -11
-5 -13 -6 -3 -12 -9 -12 -15 0 -6 6 -5 15 2 13 10 19 10 33 -3 9 -8 37 -19 62
-24 25 -5 44 -14 43 -20 -1 -6 12 -18 30 -27 18 -8 28 -16 24 -16 -14 0 13
-40 28 -40 8 0 17 -11 21 -24 3 -14 12 -27 19 -30 7 -2 18 -28 25 -58 7 -29
16 -58 21 -64 5 -6 6 -14 3 -17 -3 -3 8 -19 25 -36 18 -17 28 -31 24 -32 -4 0
3 -6 18 -12 35 -17 79 -53 79 -66 0 -6 4 -11 10 -11 5 0 7 7 4 15 -4 8 -1 15
5 15 14 0 15 -37 1 -45 -16 -10 -12 -25 8 -25 16 -1 16 -1 0 -14 -13 -10 -15
-15 -6 -24 7 -7 9 -12 6 -12 -4 0 -3 -13 2 -29 5 -18 4 -33 -3 -40 -7 -7 -7
-15 2 -25 10 -11 10 -20 1 -37 -8 -14 -9 -24 -2 -28 6 -3 12 -20 14 -36 2 -25
-1 -31 -19 -33 -28 -4 -30 -22 -3 -22 24 0 26 -15 4 -24 -13 -5 -14 -9 -4 -22
7 -8 19 -13 27 -10 22 9 14 -9 -9 -19 -33 -15 -37 -39 -4 -31 15 4 26 2 26 -4
0 -5 -19 -10 -42 -10 l-43 0 30 -20 c17 -11 24 -20 16 -20 -9 0 -11 -8 -7 -24
3 -14 2 -27 -3 -30 -9 -6 -6 -21 15 -78 4 -10 11 -18 17 -18 6 0 2 -6 -9 -14
-12 -9 -23 -11 -29 -5 -5 5 -16 9 -25 9 -13 0 -13 -1 0 -10 10 -7 11 -10 2
-10 -7 0 -15 7 -18 15 -4 8 -13 15 -21 15 -8 0 -11 5 -8 10 3 6 -3 10 -14 10
-11 0 -62 25 -113 56 -69 41 -100 54 -121 51 -15 -2 -30 0 -33 5 -3 4 -10 8
-15 8 -6 0 -8 -4 -5 -9 3 -5 -10 -8 -29 -6 -20 2 -33 -1 -30 -6 8 -12 -2 -11
-27 2 -24 13 -69 19 -63 9 8 -14 -27 -21 -42 -9 -7 7 -31 13 -53 14 -33 2 -38
0 -29 -11 14 -17 5 -18 -22 -1 -17 9 -23 9 -26 0 -3 -9 -10 -10 -21 -4 -19 9
-51 9 -68 -1 -12 -8 -101 -3 -129 7 -17 6 -17 5 -5 -5 12 -9 7 -10 -23 -5 -21
3 -46 9 -55 12 -15 4 -15 3 -2 -7 12 -9 10 -10 -12 -6 -17 4 -28 2 -28 -4 0
-7 -8 -9 -20 -5 -14 5 -27 -1 -41 -17 -11 -13 -18 -17 -14 -11 4 8 1 11 -9 7
-9 -3 -18 -22 -22 -42 -8 -50 -12 -61 -13 -35 -1 12 -17 34 -40 52 -32 26 -40
28 -45 15 -8 -22 -8 -24 7 -24 8 0 22 -9 32 -20 10 -11 13 -20 7 -20 -7 0 -12
-7 -12 -16 0 -8 -4 -12 -10 -9 -6 3 -7 -1 -3 -10 5 -13 7 -14 14 -3 7 11 11
10 19 -2 5 -9 10 -10 10 -3 0 6 8 10 18 8 9 -2 19 -4 22 -4 3 -1 -1 -5 -9 -10
-17 -11 -5 -51 15 -51 8 0 14 5 14 10 0 6 -7 10 -16 10 -8 0 -12 5 -9 10 10
16 35 11 36 -7 0 -11 3 -13 6 -5 2 6 12 12 21 11 11 0 12 -2 5 -6 -7 -2 -13
-11 -13 -18 0 -18 -34 -28 -92 -28 -35 1 -48 -3 -48 -13 0 -8 -8 -14 -18 -14
-19 0 -69 -49 -64 -62 1 -5 -5 -8 -14 -8 -11 0 -14 -6 -9 -20 5 -15 2 -20 -13
-20 -21 0 -39 -36 -62 -125 -8 -33 -7 -42 6 -52 15 -11 15 -13 1 -27 -9 -9
-21 -16 -27 -16 -7 0 -9 -8 -5 -21 4 -11 -1 -36 -10 -56 -29 -60 -36 -93 -19
-93 16 0 19 -16 4 -25 -15 -9 -12 -25 6 -25 8 0 12 -5 9 -10 -4 -6 -16 -8 -28
-6 -18 5 -18 4 3 -7 27 -13 37 -41 20 -52 -7 -4 -14 2 -17 14 -3 11 -9 18 -14
15 -5 -3 -3 -13 3 -23 9 -15 7 -26 -10 -55 -27 -45 -27 -50 -3 -43 18 4 19 -1
19 -65 0 -38 5 -75 12 -82 6 -8 8 -25 5 -38 -4 -14 2 -46 15 -78 17 -42 18
-55 8 -61 -7 -5 -13 -14 -13 -20 0 -13 -102 -52 -115 -44 -10 6 -42 -30 -33
-39 4 -4 0 -4 -8 -1 -12 4 -18 -2 -22 -23 -3 -16 -14 -38 -24 -47 -10 -10 -26
-29 -35 -43 -16 -24 -16 -27 0 -40 16 -13 16 -13 0 -8 -12 3 -18 0 -18 -9 0
-19 66 -47 109 -46 19 0 66 -6 105 -14 92 -18 226 -9 226 16 0 5 9 9 20 9 11
0 20 6 20 13 0 8 10 19 23 26 70 38 103 159 65 235 -11 21 -18 47 -15 57 3 12
-2 20 -14 24 -10 4 -16 12 -12 21 3 7 1 14 -5 14 -5 0 -15 13 -21 28 -7 15
-32 48 -56 71 -25 24 -45 52 -45 63 0 10 -4 16 -10 13 -6 -3 -10 1 -10 10 0 8
-7 18 -16 22 -21 8 -38 53 -25 66 6 6 5 16 -2 28 -6 10 -8 22 -3 26 4 4 12 -1
18 -11 8 -14 12 -16 19 -5 5 8 1 18 -12 27 -10 7 -19 22 -19 34 0 15 -5 19
-19 15 -14 -3 -21 2 -25 18 -3 13 -9 30 -12 39 -4 10 -1 16 7 16 9 0 14 12 15
31 1 20 -2 26 -7 17 -7 -10 -11 -10 -21 0 -10 10 -10 15 2 22 13 8 13 10 1 10
-12 0 -13 2 -2 12 10 11 14 9 22 -5 9 -14 14 -16 25 -6 12 10 12 14 -6 26 -11
8 -20 20 -19 26 0 9 2 9 6 0 7 -18 23 -16 23 2 0 8 8 15 18 15 13 0 14 2 3 9
-9 6 -10 11 -2 15 6 4 9 11 6 16 -11 17 42 40 94 41 28 1 49 4 46 7 -3 3 10
13 29 21 18 9 33 19 32 22 -3 17 54 81 82 91 17 7 32 15 32 18 0 4 22 12 50
20 27 7 47 17 44 21 -14 23 267 49 315 30 15 -7 37 -13 50 -14 14 -1 20 -6 16
-15 -3 -7 -5 -18 -5 -23 0 -6 -5 -7 -10 -4 -6 4 -7 11 -4 17 4 6 2 8 -3 5 -6
-4 -54 -9 -107 -11 -73 -3 -98 -1 -107 10 -6 8 -16 14 -21 14 -5 0 -2 -7 6
-16 20 -20 20 -19 -8 -22 -14 -1 -44 -8 -68 -17 -24 -8 -53 -15 -65 -15 -20 0
-71 -43 -131 -112 l-23 -26 47 -16 c25 -8 50 -13 54 -11 11 7 1 43 -14 48 -6
2 0 2 12 0 13 -2 21 0 18 5 -10 17 53 64 118 88 37 13 70 24 75 24 4 0 7 -31
7 -68 -1 -60 2 -73 26 -104 16 -20 43 -42 63 -48 31 -10 39 -19 37 -40 0 -3 8
-6 19 -6 21 0 24 7 9 22 -7 7 -6 11 5 11 8 0 15 -5 15 -11 0 -8 3 -7 8 0 10
16 72 29 72 15 0 -5 22 -10 50 -9 27 0 48 4 45 8 -5 9 56 -3 74 -15 9 -5 9
-10 0 -21 -19 -23 16 -29 48 -7 48 32 76 41 142 46 66 5 85 18 77 50 -3 13 2
17 22 18 104 1 124 5 140 27 11 14 22 19 30 13 18 -11 62 -2 62 13 0 7 13 13
31 13 25 0 30 -4 26 -19 -3 -10 -1 -16 4 -12 5 3 9 -4 9 -16 0 -12 5 -18 10
-15 6 4 8 11 5 16 -4 5 -2 9 4 9 6 0 13 -11 17 -25 7 -29 16 -31 35 -9 10 13
10 17 -2 25 -8 5 -9 9 -4 9 6 0 9 17 7 41 -4 38 -3 41 17 34 16 -5 20 -3 15 8
-3 8 0 18 7 23 7 4 14 3 16 -3 2 -6 12 -9 23 -6 12 3 23 -3 32 -16 14 -23 30
-28 25 -9 -1 7 5 12 13 13 16 0 28 -38 37 -117 3 -27 8 -48 12 -48 4 0 7 -8 7
-17 4 -96 14 -183 23 -206 7 -17 7 -26 1 -22 -6 4 -5 -5 1 -22 6 -15 13 -46
16 -68 4 -38 3 -39 -11 -20 -15 19 -15 18 -7 -10 5 -19 3 -41 -4 -58 -13 -32
-25 -26 -25 15 0 49 -17 30 -22 -24 -3 -29 -11 -54 -17 -56 -15 -5 -14 -32 2
-33 6 -1 1 -4 -13 -8 -25 -7 -27 -16 -16 -56 7 -22 -19 -63 -31 -50 -5 4 -2
10 4 12 18 6 16 38 -2 53 -13 11 -14 8 -9 -18 3 -17 1 -32 -5 -36 -5 -4 -8
-13 -5 -20 3 -8 1 -17 -5 -21 -6 -3 -14 1 -17 9 -6 16 -25 23 -23 9 4 -25 -4
-41 -22 -46 -12 -3 -18 -10 -15 -15 9 -15 -33 -62 -55 -62 -21 0 -26 -25 -6
-33 6 -3 3 -6 -8 -7 l-20 -1 20 -8 c12 -5 20 -17 20 -32 0 -28 -26 -61 -33
-41 -2 6 -11 12 -20 11 -11 0 -12 -2 -4 -6 6 -2 12 -12 12 -20 0 -13 -3 -13
-15 -3 -29 24 -28 0 1 -26 l29 -26 -30 5 c-16 2 -24 2 -16 -1 12 -3 12 -5 0
-13 -10 -6 -7 -9 11 -9 l25 0 -29 -15 c-15 -8 -35 -15 -42 -15 -16 0 -19 16
-4 25 13 8 13 35 0 35 -5 0 -7 -7 -4 -15 4 -9 0 -15 -10 -15 -9 0 -16 7 -16
15 0 8 -5 15 -11 15 -5 0 -7 -5 -4 -10 3 -6 -4 -10 -18 -10 -31 0 -49 -20 -37
-40 8 -12 10 -10 10 8 0 13 4 21 10 17 5 -3 7 -12 3 -20 -3 -9 1 -15 11 -15 9
0 16 7 16 15 0 20 16 19 24 -1 8 -21 8 -21 -14 -27 -12 -3 -20 -14 -20 -27 0
-16 -4 -21 -16 -16 -14 6 -16 0 -11 -36 5 -37 4 -40 -7 -25 -14 19 -51 23 -61
7 -3 -5 3 -10 14 -10 12 0 21 -4 21 -10 0 -5 -7 -10 -15 -10 -11 0 -14 -7 -9
-25 4 -16 2 -25 -6 -25 -6 0 -8 4 -5 10 3 6 -3 10 -15 10 -12 0 -18 -4 -15
-10 3 -5 5 -35 5 -67 -1 -32 -1 -67 -1 -77 0 -11 6 -23 12 -27 10 -6 10 -13
-1 -36 -7 -15 -12 -40 -11 -55 2 -22 -1 -27 -13 -22 -9 3 -16 1 -16 -5 0 -6 5
-11 11 -11 6 0 9 -9 6 -20 -3 -12 1 -24 11 -30 16 -9 16 -9 0 -10 -21 0 -22
-4 -8 -29 7 -14 4 -23 -15 -41 -13 -12 -21 -28 -18 -36 3 -8 0 -14 -6 -14 -6
0 -11 -9 -11 -20 0 -10 -9 -24 -19 -30 -16 -8 -19 -17 -14 -43 4 -24 0 -37
-13 -47 -19 -16 -19 -16 3 37 3 7 0 13 -5 13 -11 0 -56 -58 -58 -75 0 -5 -2
-16 -2 -24 -1 -8 -8 -11 -19 -6 -10 4 -23 9 -30 12 -7 3 -12 -3 -12 -14 0 -10
-4 -34 -9 -53 -7 -28 -13 -35 -31 -32 -29 3 -81 -45 -81 -75 0 -25 -10 -29
-28 -11 -9 9 -12 8 -12 -4 0 -9 6 -18 13 -21 6 -2 -5 -7 -25 -11 -23 -4 -44
-16 -55 -32 -39 -54 -74 -88 -82 -76 -11 18 -72 -23 -64 -44 5 -13 2 -15 -15
-9 -13 4 -22 2 -22 -4 0 -6 -6 -11 -14 -11 -8 0 -16 -5 -18 -10 -2 -6 -14 -12
-28 -15 -14 -3 -26 -9 -28 -15 -2 -5 -9 -10 -15 -10 -28 0 -97 -37 -108 -57
-7 -12 -15 -21 -18 -20 -7 2 -33 -18 -63 -50 -20 -21 -45 -24 -93 -12 -5 1
-19 -1 -30 -5 -50 -19 -63 -29 -57 -44 4 -12 1 -14 -12 -9 -14 6 -17 4 -12
-10 4 -10 4 -14 0 -11 -3 4 -24 -4 -45 -18 -21 -13 -47 -24 -56 -24 -15 0 -16
-2 -3 -10 12 -8 11 -10 -7 -10 -13 0 -23 4 -23 9 0 5 -9 7 -20 4 -11 -3 -20
-12 -20 -20 0 -8 -4 -11 -10 -8 -5 3 -26 -3 -47 -13 -21 -11 -51 -22 -68 -26
-42 -8 -148 -11 -160 -4 -6 3 -44 9 -85 13 -41 4 -86 12 -100 18 -14 5 -41 13
-60 17 -19 4 -43 11 -52 15 -11 4 -18 3 -18 -4 0 -6 8 -11 18 -11 9 0 34 -11
55 -25 20 -14 37 -23 37 -20 0 4 88 -54 109 -71 2 -2 -2 -10 -8 -18 -7 -8 -9
-21 -5 -27 5 -9 11 -7 21 6 11 16 13 17 13 3 0 -9 -5 -29 -10 -44 -8 -20 -8
-29 1 -34 13 -9 -24 -49 -62 -67 l-24 -12 28 0 c16 -1 30 5 33 14 4 8 10 15
16 15 5 0 6 -5 3 -11 -5 -7 6 -9 32 -5 21 3 30 3 20 0 -9 -3 -17 -12 -17 -20
0 -17 16 -19 26 -3 4 8 9 7 15 -2 6 -10 13 -10 34 -1 15 7 31 9 38 5 7 -4 5
-9 -6 -12 -10 -4 15 -6 55 -6 99 0 223 -19 214 -34 -2 -3 22 -5 55 -4 54 1 59
-1 60 -20 0 -12 3 -17 5 -11 3 7 33 10 82 8 42 -2 96 -4 120 -4 35 0 42 -3 42
-20 0 -21 10 -26 25 -12 16 14 122 35 139 29 18 -7 46 1 46 13 0 5 -10 6 -22
4 -14 -3 -11 0 7 7 17 7 32 15 35 19 10 13 50 18 50 7 0 -7 5 -4 11 6 5 9 16
17 23 17 8 0 20 10 28 22 10 14 25 21 47 21 17 0 26 4 20 8 -7 4 11 17 47 34
32 14 77 35 98 46 25 12 42 16 46 10 3 -6 26 4 55 24 27 19 60 36 74 36 24 2
24 2 4 6 -13 2 -23 8 -23 12 0 12 45 51 58 51 7 0 12 7 12 16 0 8 5 12 10 9
19 -12 72 6 66 21 -3 9 1 14 14 14 10 0 22 5 25 10 3 5 18 10 33 11 24 0 25 1
7 9 -17 8 -16 9 9 9 21 1 27 5 22 16 -3 8 -1 15 4 15 6 0 10 6 10 13 0 14 45
37 72 37 10 0 18 6 18 14 0 8 9 17 19 21 11 3 22 12 25 20 3 8 12 15 21 15 12
0 13 4 6 19 -9 16 -7 17 14 14 18 -4 27 2 40 27 10 19 22 30 30 26 7 -2 16 2
19 10 3 8 11 14 18 14 7 0 21 14 30 30 9 17 24 30 32 30 19 0 66 46 66 65 0
18 12 19 28 3 9 -9 12 -9 13 3 5 67 8 82 15 88 9 6 12 23 15 103 1 27 7 48 13
48 6 0 4 5 -4 10 -13 8 -13 10 0 10 10 0 11 3 3 11 -6 6 -9 17 -7 24 3 7 1 16
-5 19 -6 4 -8 13 -4 21 3 10 -2 15 -16 15 -17 0 -21 6 -21 35 0 23 -6 38 -15
41 -12 5 -13 10 -4 20 6 7 8 18 5 23 -7 11 41 189 55 207 5 6 8 34 8 63 -1 29
3 56 8 60 5 3 12 15 15 26 15 49 45 125 56 138 7 8 11 19 10 25 -2 5 1 10 6
10 5 0 12 6 16 12 11 17 32 -52 29 -93 -1 -17 -1 -45 0 -62 1 -28 2 -28 15
-10 7 11 15 29 18 40 2 12 10 19 21 17 10 -2 17 4 17 13 0 9 -4 13 -10 10 -6
-3 -10 -1 -10 4 0 6 5 11 11 11 6 0 9 9 6 20 -7 29 13 41 43 25 14 -8 31 -14
39 -15 8 0 20 -8 28 -18 14 -16 14 -16 10 3 -3 16 2 20 27 22 26 1 28 0 11 -8
-15 -7 -12 -8 12 -3 33 6 63 -11 63 -35 0 -6 5 -11 10 -11 6 0 10 5 10 11 0 6
7 17 15 25 19 20 19 2 0 -36 -13 -25 -13 -29 1 -34 8 -3 12 -2 9 4 -12 19 5
30 30 18 28 -12 33 -28 10 -28 -8 0 -15 -7 -15 -16 0 -13 7 -15 30 -11 16 4
30 3 30 -2 0 -5 12 -12 28 -17 l27 -7 -30 -7 c-24 -6 -25 -8 -7 -9 21 -1 26
-10 23 -39 -1 -8 3 -19 9 -27 8 -9 8 -15 0 -20 -15 -9 -12 -25 5 -25 9 0 15 7
13 17 -2 10 4 19 14 21 16 3 16 1 2 -33 -17 -41 -14 -51 12 -41 9 4 14 14 12
24 -4 13 2 17 24 18 28 1 39 -11 16 -18 -9 -3 -8 -9 5 -22 22 -23 22 -26 -5
-26 -19 0 -20 2 -8 10 13 9 13 10 0 9 -20 -1 -58 -17 -42 -18 7 -1 11 -5 8 -9
-3 -5 5 -8 17 -8 13 1 21 -4 19 -12 -1 -7 5 -12 15 -10 12 2 19 -4 21 -19 2
-13 -1 -23 -7 -23 -6 0 -11 5 -11 10 0 6 -4 10 -10 10 -15 0 -12 -30 3 -31 6
-1 22 0 33 0 21 2 39 -23 28 -40 -3 -5 7 -14 22 -21 l26 -12 -28 -23 c-29 -23
-29 -23 -7 -29 13 -4 20 -10 17 -15 -7 -12 -54 -11 -54 1 0 6 -7 10 -15 10
-13 0 -12 -4 5 -22 25 -28 26 -42 0 -35 -11 3 -20 1 -20 -4 0 -5 13 -12 29
-15 36 -7 51 -49 26 -68 -15 -11 -15 -13 -1 -25 12 -11 14 -17 5 -27 -9 -11
-8 -14 5 -14 9 0 21 11 26 25 5 14 14 25 19 25 5 0 2 -18 -6 -39 -14 -36 -18
-39 -40 -30 -30 11 -33 11 -33 -1 0 -5 6 -10 13 -10 8 0 11 -17 10 -57 -1 -31
1 -52 5 -46 4 5 18 14 31 18 l24 7 -22 -23 c-11 -12 -21 -28 -20 -33 0 -6 3
-5 6 2 4 10 8 10 19 1 19 -16 18 -29 -3 -30 -10 -1 0 -5 22 -9 27 -5 42 -4 47
4 6 8 8 7 8 -1 0 -7 6 -13 14 -13 8 0 18 -5 22 -12 5 -8 -4 -9 -34 -5 -22 4
-43 3 -47 -2 -7 -13 12 -24 44 -25 23 -1 26 -5 25 -33 -2 -33 10 -44 19 -20 7
17 27 -11 20 -29 -2 -6 1 -15 6 -19 6 -3 9 -10 6 -15 -9 -15 17 -59 31 -53 10
4 14 -3 14 -22 0 -22 3 -25 20 -20 18 6 18 4 9 -24 -13 -37 -29 -40 -29 -6 0
14 -4 25 -10 25 -5 0 -10 7 -10 15 0 8 -5 15 -11 15 -10 0 -4 -53 9 -75 3 -5
5 -28 5 -50 l-1 -40 11 37 c14 51 40 51 32 1 -3 -22 -2 -30 3 -20 7 16 10 15
45 -8 20 -14 37 -21 37 -14 0 6 7 8 16 5 8 -3 12 -2 9 4 -14 22 25 8 44 -16
24 -31 24 -31 11 16 -8 31 -8 33 4 17 11 -14 15 -15 19 -5 3 7 6 -2 6 -19 1
-28 5 -33 25 -33 19 0 22 -4 18 -25 -5 -31 -20 -41 -35 -26 -8 8 -8 11 1 11 7
0 12 5 12 10 0 6 -13 10 -30 10 -16 0 -30 -4 -30 -10 0 -5 8 -7 18 -4 9 3 6
-1 -7 -9 -20 -12 -21 -15 -6 -20 9 -4 28 -7 41 -7 29 0 32 -17 4 -22 -31 -5
-19 -23 13 -20 15 1 27 -3 27 -9 0 -8 -14 -10 -40 -6 -34 4 -40 2 -40 -13 0
-13 -6 -16 -24 -13 -13 3 -27 0 -30 -6 -10 -16 -26 -13 -26 4 0 8 7 15 15 15
8 0 15 5 15 10 0 6 10 10 23 10 15 0 18 3 9 9 -7 4 -14 21 -15 37 -2 23 -7 29
-25 28 -13 0 -22 5 -22 14 0 11 -3 12 -13 3 -10 -8 -17 -7 -26 2 -11 9 -14 9
-18 0 -3 -7 -11 -13 -20 -13 -17 0 -13 -22 5 -28 7 -2 12 3 12 12 0 18 15 22
25 6 3 -5 12 -7 19 -4 7 3 19 -2 26 -11 7 -8 9 -15 5 -15 -4 0 -2 -7 5 -15 10
-13 9 -15 -9 -15 -12 0 -19 -5 -16 -10 4 -6 -10 -10 -34 -10 -23 0 -41 -4 -41
-8 0 -4 12 -8 28 -7 22 0 27 -4 25 -23 -2 -14 3 -22 12 -22 8 0 15 -5 15 -11
0 -7 12 -22 28 -35 27 -24 16 -32 -19 -14 -24 13 -25 2 -2 -16 17 -13 17 -13
1 -14 -13 0 -18 -8 -17 -27 0 -25 1 -26 9 -8 7 17 9 15 9 -12 1 -17 7 -34 13
-37 7 -3 2 -3 -12 0 -14 3 -35 12 -47 20 -18 11 -23 12 -23 2 0 -18 38 -40 52
-32 7 5 8 3 3 -5 -8 -14 170 -195 255 -259 93 -71 330 -305 330 -326 0 -9 3
-16 8 -16 4 0 21 -11 37 -25 l30 -25 -30 6 c-35 8 -102 42 -129 66 -15 14 -16
18 -5 22 41 13 43 14 21 15 -12 1 -25 8 -28 16 -4 8 -10 12 -15 9 -5 -3 -9 3
-9 13 -1 17 -1 17 -14 1 -7 -10 -17 -18 -22 -18 -14 0 -32 47 -23 61 5 9 -5
18 -32 31 -22 10 -45 17 -52 15 -6 -1 -16 8 -22 21 -5 12 -19 22 -30 22 -17 0
-17 2 -5 10 11 7 12 10 2 10 -7 0 -21 8 -30 17 -16 16 -16 16 1 10 12 -5 17
-3 15 4 -2 7 -16 13 -31 15 -14 1 -39 14 -54 28 -15 14 -31 26 -35 26 -4 0 -5
7 -2 15 4 9 0 15 -8 15 -18 0 -71 55 -74 76 -6 37 -14 47 -28 34 -12 -9 -18
-6 -31 14 -22 33 -105 116 -116 116 -5 0 -30 20 -56 45 -25 25 -49 45 -52 45
-3 0 -28 21 -54 45 -46 43 -67 55 -67 37 0 -12 111 -133 171 -188 43 -39 72
-74 59 -74 -19 0 3 -30 26 -36 13 -3 42 -26 65 -51 37 -40 40 -47 25 -55 -16
-9 -15 -11 5 -29 12 -10 18 -19 13 -19 -5 0 -2 -5 6 -11 11 -7 6 -8 -20 -3
-19 4 -46 7 -60 8 -14 1 -25 7 -25 15 0 8 -17 22 -39 30 -30 13 -35 19 -25 27
8 6 24 14 37 17 17 4 22 1 23 -14 3 -38 4 -42 15 -46 7 -2 11 11 10 37 0 22
-3 40 -6 41 -3 0 -13 2 -22 4 -10 2 -18 -1 -18 -6 0 -5 -9 -9 -21 -9 -11 0
-17 4 -14 10 3 5 -7 12 -22 15 -15 4 -37 10 -48 15 -15 7 -13 8 9 3 20 -4 27
-3 22 6 -4 6 -1 11 6 11 9 0 9 3 -2 10 -12 8 -10 10 9 10 37 0 13 15 -32 19
-5 1 -5 6 -2 12 5 7 -7 9 -37 5 -24 -3 -50 0 -58 5 -12 9 -10 10 8 6 31 -7 28
9 -3 17 -14 4 -23 11 -20 16 3 6 -2 10 -12 11 -16 0 -16 1 2 9 18 8 18 9 2 9
-10 1 -16 5 -13 10 4 5 -4 7 -16 3 -14 -3 -19 -1 -14 6 3 6 -3 16 -14 22 -20
11 -23 29 -6 41 5 4 -8 15 -28 24 -34 16 -54 54 -21 41 12 -4 14 0 9 22 -4 15
-10 31 -15 36 -4 5 -5 15 -2 24 5 12 1 14 -15 10 -15 -4 -19 -2 -15 8 3 8 0
21 -7 29 -10 12 -9 15 4 15 9 0 16 4 16 9 0 26 -96 62 -129 49 l-25 -9 33 -20
c19 -11 29 -24 25 -31 -4 -6 -3 -8 3 -5 6 4 16 0 23 -8 14 -17 21 -65 9 -65
-5 0 -9 4 -9 9 0 5 -10 13 -21 16 -14 5 -18 10 -10 14 7 5 2 12 -14 19 -32 15
-38 15 -30 2 3 -5 -1 -10 -9 -10 -19 0 -30 17 -14 23 7 2 -7 13 -31 22 -38 16
-42 20 -25 27 16 6 15 7 -6 6 -14 -1 -35 4 -47 10 -27 15 -31 5 -5 -14 16 -13
16 -13 0 -14 -10 0 -25 11 -34 25 -9 13 -25 27 -35 30 -11 4 -19 12 -17 18 5
30 -14 86 -31 92 -11 3 -27 25 -37 48 -17 40 -20 48 -23 72 -1 6 -6 3 -11 -5
-8 -12 -10 -11 -10 6 0 12 -7 27 -15 34 -13 11 -15 6 -15 -31 0 -81 -58 -261
-82 -256 -7 1 -14 -7 -16 -18 -2 -11 -7 -22 -11 -25 -10 -8 -28 -41 -58 -102
-15 -32 -31 -58 -36 -58 -4 0 -5 -5 -2 -10 3 -6 1 -10 -4 -10 -6 0 -11 -6 -11
-13 0 -17 -113 -243 -133 -265 -8 -9 -12 -23 -10 -29 3 -7 0 -13 -6 -13 -6 0
-10 -3 -9 -7 2 -11 -24 -63 -32 -63 -3 0 -17 -19 -30 -42 -23 -42 -60 -98 -70
-108 -3 -3 -14 -18 -24 -35 -30 -46 -154 -193 -223 -263 -35 -35 -63 -68 -63
-73 0 -5 -4 -8 -9 -7 -5 2 -24 -13 -43 -32 -18 -19 -58 -56 -88 -82 -30 -26
-66 -56 -79 -67 -13 -12 -28 -21 -33 -21 -5 0 -19 -9 -31 -20 -26 -24 -85 -64
-144 -96 -149 -83 -157 -87 -198 -105 -16 -7 -38 -19 -47 -27 -9 -8 -21 -11
-27 -8 -5 4 -12 2 -15 -3 -13 -20 -205 -73 -371 -102 -73 -13 -295 -11 -295 3
0 3 -19 9 -42 13 -61 10 -145 52 -201 99 -43 36 -267 292 -307 350 -8 12 -31
44 -51 72 -111 153 -197 385 -200 539 l-1 60 -15 -47 c-8 -28 -20 -48 -29 -48
-19 0 -18 13 6 42 15 19 16 28 7 37 -9 9 -9 14 1 20 27 17 37 121 12 121 -13
0 -60 -46 -60 -59 0 -6 -8 -11 -18 -11 -28 0 -65 -43 -50 -58 9 -9 7 -17 -11
-33 -27 -25 -37 -19 -21 11 10 18 9 25 -2 37 -12 11 -20 12 -41 2 -15 -7 -27
-16 -27 -22 0 -5 -6 -7 -13 -4 -7 2 -23 -3 -35 -13 -22 -18 -22 -19 -2 -25 11
-3 24 -4 29 -1 8 5 21 -15 21 -31 0 -3 -16 -2 -35 1 -27 5 -37 3 -41 -9 -4 -9
-13 -14 -21 -11 -8 4 -20 3 -26 -1 -21 -14 -81 -32 -86 -27 -3 3 5 14 19 24
31 24 22 34 -16 19 -16 -7 -33 -11 -37 -10 -14 3 -77 -31 -77 -41 0 -5 -4 -7
-9 -4 -11 7 -69 -21 -95 -46 -24 -22 -50 -24 -42 -3 6 17 -19 21 -30 4 -3 -6
-21 -17 -40 -25 -44 -18 -257 -141 -317 -183 -70 -48 -49 -51 30 -3 101 60
290 118 268 82 -3 -5 -15 -10 -26 -10 -10 0 -19 -5 -19 -11 0 -17 -24 -36 -41
-34 -9 2 -24 -10 -33 -26 -9 -16 -23 -29 -31 -29 -8 0 -18 -7 -23 -15 -4 -9
-23 -17 -41 -20 -38 -4 -59 -19 -42 -29 6 -4 11 -2 11 3 0 6 5 11 10 11 46 0
-104 -84 -164 -93 -13 -1 -31 -9 -41 -17 -12 -10 -21 -11 -33 -3 -13 7 -21 7
-30 -3 -7 -8 -25 -17 -40 -20 -83 -19 -312 -97 -407 -139 -16 -7 -56 -24 -87
-38 -57 -25 -167 -93 -179 -110 -7 -9 -19 -17 -87 -54 -22 -13 -44 -28 -48
-34 -12 -20 56 -2 90 24 17 13 75 45 129 72 54 27 100 52 103 57 3 4 13 8 22
8 10 0 34 9 54 20 20 10 59 22 87 26 48 6 50 5 46 -15 -6 -32 -14 -41 -36 -41
-10 0 -19 -5 -19 -10 0 -6 -9 -20 -20 -32 -16 -17 -22 -19 -34 -9 -12 10 -17
8 -26 -9 -8 -14 -17 -19 -30 -15 -20 6 -60 -13 -60 -30 0 -5 -34 -26 -75 -45
-41 -19 -77 -40 -80 -47 -2 -7 -11 -13 -19 -13 -8 0 -25 -11 -38 -24 -13 -13
-70 -52 -128 -86 -58 -35 -121 -74 -140 -87 -19 -13 -43 -23 -52 -23 -10 0
-17 -6 -16 -12 2 -7 -7 -14 -20 -16 -13 -2 -26 -10 -29 -18 -3 -8 -10 -14 -15
-14 -15 0 -68 -40 -68 -51 0 -5 26 -9 59 -9 53 0 62 3 95 35 20 19 53 42 73
51 19 10 46 28 59 41 13 13 36 24 51 25 15 1 37 2 48 3 13 0 19 7 19 18 -2 17
60 57 86 57 18 0 11 -22 -10 -27 -10 -3 -22 -14 -25 -24 -4 -11 -15 -24 -26
-29 -10 -6 -19 -17 -19 -25 0 -8 -4 -15 -10 -15 -5 0 -10 5 -10 10 0 19 -17
10 -30 -16 -13 -23 -18 -25 -54 -19 -22 3 -37 3 -33 -1 4 -4 1 -14 -6 -22 -9
-13 -9 -14 0 -8 8 4 13 2 13 -8 0 -10 -9 -14 -27 -13 -19 1 -28 -3 -28 -13 0
-20 84 -27 97 -8 8 10 11 10 15 1 4 -10 775 -13 3809 -13 l3804 0 0 4000 0
4000 -3986 0 -3986 0 4 -2107z m3753 1916 c6 -6 -3 -7 -24 -3 -23 5 -36 3 -42
-7 -6 -10 -8 -8 -6 8 1 19 6 22 32 17 16 -3 34 -9 40 -15z m-228 -15 c-3 -3
-12 -4 -19 -1 -8 3 -5 6 6 6 11 1 17 -2 13 -5z m48 -4 c-3 -5 -11 -10 -16 -10
-6 0 -7 5 -4 10 3 6 11 10 16 10 6 0 7 -4 4 -10z m-112 -17 c-7 -2 -19 -2 -25
0 -7 3 -2 5 12 5 14 0 19 -2 13 -5z m230 0 c-7 -2 -19 -2 -25 0 -7 3 -2 5 12
5 14 0 19 -2 13 -5z m-353 -33 c-8 -5 -22 -10 -30 -10 -13 0 -13 1 0 10 8 5
22 10 30 10 13 0 13 -1 0 -10z m1060 0 c0 -5 -4 -10 -9 -10 -6 0 -13 5 -16 10
-3 6 1 10 9 10 9 0 16 -4 16 -10z m-585 -10 c-3 -5 -12 -10 -18 -10 -7 0 -6 4
3 10 19 12 23 12 15 0z m785 1 c0 -5 -7 -11 -14 -14 -10 -4 -13 -1 -9 9 6 15
23 19 23 5z m-555 -11 c16 0 15 -3 -9 -15 -36 -19 -37 -19 -29 3 6 15 5 15
-10 4 -9 -8 -21 -11 -27 -7 -5 3 -13 -1 -16 -9 -7 -19 -25 -22 -21 -4 3 18 48
38 72 33 11 -3 29 -5 40 -5z m145 -20 c-8 -5 -22 -10 -30 -10 -13 0 -13 1 0
10 8 5 22 10 30 10 13 0 13 -1 0 -10z m-273 -6 c-3 -3 -12 -4 -19 -1 -8 3 -5
6 6 6 11 1 17 -2 13 -5z m68 -14 c-3 -5 -10 -10 -16 -10 -5 0 -9 5 -9 10 0 6
7 10 16 10 8 0 12 -4 9 -10z m355 6 c0 -3 -12 -18 -27 -33 -16 -17 -24 -21
-20 -10 4 11 1 17 -8 17 -26 0 -16 19 13 23 15 2 30 5 35 6 4 0 7 -1 7 -3z
m-275 -35 c-3 -6 -14 -11 -23 -11 -13 0 -13 2 4 14 21 15 30 14 19 -3z m275
-20 c-15 -29 -30 -35 -30 -13 0 22 8 32 27 32 10 0 11 -5 3 -19z m40 -60 c0
-6 -4 -13 -10 -16 -5 -3 -10 1 -10 9 0 9 5 16 10 16 6 0 10 -4 10 -9z m-175
-35 c17 -12 16 -14 -18 -18 -46 -5 -52 25 -6 31 3 1 14 -5 24 -13z m178 -1
c-3 -9 -8 -14 -10 -11 -3 3 -2 9 2 15 9 16 15 13 8 -4z m123 -50 c0 -31 -1
-34 -14 -22 -9 9 -11 23 -7 36 10 32 20 25 21 -14z m-306 3 c0 -6 -3 -9 -6 -5
-3 3 -17 2 -30 -3 -14 -6 -24 -6 -24 0 0 7 10 11 53 19 4 0 7 -4 7 -11z m30 2
c0 -5 -5 -10 -11 -10 -5 0 -7 5 -4 10 3 6 8 10 11 10 2 0 4 -4 4 -10z m-755
-10 c-3 -5 -11 -10 -16 -10 -6 0 -7 5 -4 10 3 6 11 10 16 10 6 0 7 -4 4 -10z
m44 -12 c-2 -2 -16 -14 -31 -27 -16 -14 -28 -20 -28 -13 0 16 29 42 47 42 9 0
14 -1 12 -2z m659 -26 c2 -7 -7 -12 -24 -12 -27 0 -27 -1 -8 -15 18 -14 18
-14 -8 -15 -16 0 -28 4 -28 9 0 5 -11 8 -25 5 -14 -2 -25 0 -25 6 0 5 3 10 8
11 49 4 78 11 81 20 4 13 23 7 29 -9z m32 -2 c0 -5 -4 -10 -10 -10 -5 0 -10 5
-10 10 0 6 5 10 10 10 6 0 10 -4 10 -10z m61 -60 c10 0 21 -5 25 -11 9 -16
-38 -1 -54 17 -7 9 -8 10 0 4 7 -6 20 -10 29 -10z m49 -76 c-3 -5 -13 -10 -23
-11 -10 -2 -16 1 -13 6 4 5 0 11 -6 14 -7 3 1 4 17 2 17 -1 28 -6 25 -11z
m400 -34 c0 -5 -2 -10 -4 -10 -3 0 -8 5 -11 10 -3 6 -1 10 4 10 6 0 11 -4 11
-10z m-400 -50 c0 -13 -6 -20 -17 -19 -11 0 -13 3 -5 6 6 2 12 11 12 19 0 8 2
14 5 14 3 0 5 -9 5 -20z m723 -40 c-7 -28 -13 -25 -13 6 0 14 4 23 9 20 5 -3
7 -15 4 -26z m-36 -12 c-3 -8 -6 -5 -6 6 -1 11 2 17 5 13 3 -3 4 -12 1 -19z
m-494 -23 c-3 -9 -8 -14 -10 -11 -3 3 -2 9 2 15 9 16 15 13 8 -4z m-102 -39
c-9 -11 -9 -15 1 -19 8 -3 6 -6 -5 -6 -10 -1 -16 -5 -13 -9 2 -4 -4 -8 -15 -8
-17 0 -16 3 8 28 28 29 44 39 24 14z m89 -26 c0 -5 -5 -10 -11 -10 -5 0 -7 5
-4 10 3 6 8 10 11 10 2 0 4 -4 4 -10z m37 -57 c-3 -10 -5 -2 -5 17 0 19 2 27
5 18 2 -10 2 -26 0 -35z m943 -53 c0 -5 -2 -10 -4 -10 -3 0 -8 5 -11 10 -3 6
-1 10 4 10 6 0 11 -4 11 -10z m-3 -52 c-3 -7 -5 -2 -5 12 0 14 2 19 5 13 2 -7
2 -19 0 -25z m-850 -60 c-3 -8 -6 -5 -6 6 -1 11 2 17 5 13 3 -3 4 -12 1 -19z
m-767 -343 c0 -11 -19 -4 -41 15 l-24 21 33 -16 c17 -8 32 -18 32 -20z m-780
5 c18 -12 2 -12 -25 0 -13 6 -15 9 -5 9 8 0 22 -4 30 -9z m2889 -294 c-3 -3
-11 5 -18 17 -13 21 -12 21 5 5 10 -10 16 -20 13 -22z m-1574 -7 c-10 -15 -25
-10 -19 6 4 8 10 12 15 9 5 -3 7 -10 4 -15z m75 -40 c0 -14 -17 -10 -23 5 -4
10 -1 13 9 9 7 -3 14 -9 14 -14z m474 -498 c-6 -6 -24 19 -24 34 1 6 7 1 15
-9 8 -11 12 -22 9 -25z m-354 -531 c18 -12 2 -12 -25 0 -13 6 -15 9 -5 9 8 0
22 -4 30 -9z m-149 -18 c-7 -2 -18 1 -23 6 -8 8 -4 9 13 5 13 -4 18 -8 10 -11z
m-626 -2 c3 -5 1 -10 -4 -10 -6 0 -11 5 -11 10 0 6 2 10 4 10 3 0 8 -4 11 -10z
m600 -20 c13 -6 15 -9 5 -9 -8 0 -22 4 -30 9 -18 12 -2 12 25 0z m-662 -35
c-3 -9 -8 -14 -10 -11 -3 3 -2 9 2 15 9 16 15 13 8 -4z m614 -81 c3 -8 15 -14
27 -13 20 0 20 1 2 8 -14 5 -16 10 -7 15 6 4 17 4 24 -2 7 -5 40 -6 76 -2 72
7 124 2 115 -11 -3 -5 2 -9 11 -9 10 0 13 -5 9 -12 -6 -10 -5 -10 7 -1 12 10
30 10 80 1 52 -9 60 -13 39 -19 -23 -6 -23 -7 -3 -8 12 -1 25 -6 28 -11 4 -6
3 -10 -2 -9 -4 1 -26 0 -48 -1 -35 -2 -37 -3 -15 -10 14 -4 40 -8 59 -9 29 -1
32 -3 21 -16 -7 -8 -20 -15 -29 -14 -12 0 -11 2 4 9 20 8 19 9 -1 9 -12 1 -28
-8 -35 -18 -15 -20 -67 -42 -55 -23 12 20 -11 22 -59 5 -44 -15 -48 -15 -57 1
-11 19 -73 22 -82 4 -5 -10 -7 -10 -12 0 -3 6 -12 12 -20 12 -8 0 -14 7 -14
15 0 9 -9 15 -25 15 -14 0 -25 -5 -25 -11 0 -7 -15 -9 -42 -5 -24 3 -87 7
-141 10 -185 8 -237 21 -234 56 2 25 23 33 48 19 14 -7 24 -7 33 0 6 6 64 11
128 13 64 2 114 6 111 11 -2 4 1 7 7 7 6 0 9 4 6 8 -2 4 11 6 30 4 20 -3 38
-11 41 -18z m539 -3 c-4 -6 -14 -7 -23 -4 -15 6 -14 7 3 13 22 9 29 6 20 -9z
m-1012 -29 c2 -4 -4 -8 -14 -8 -10 0 -16 4 -14 8 3 4 9 8 14 8 5 0 11 -4 14
-8z m53 -8 c-3 -3 -12 -4 -19 -1 -8 3 -5 6 6 6 11 1 17 -2 13 -5z m2271 -95
c32 -26 82 -100 94 -137 14 -47 19 -193 8 -254 -15 -88 -20 -100 -35 -95 -7 3
-18 0 -24 -6 -15 -15 -15 2 0 40 18 48 36 175 32 236 -4 73 -28 125 -73 155
-30 20 -44 23 -90 19 -34 -3 -47 -2 -35 3 19 8 19 9 -2 9 -13 1 -26 1 -29 0
-7 -1 -24 22 -24 33 0 13 56 26 102 23 32 -2 57 -11 76 -26z m-2010 -156 c-2
-10 -10 -18 -18 -18 -8 0 -16 8 -18 18 -2 12 3 17 18 17 15 0 20 -5 18 -17z
m212 -93 c0 -11 -4 -20 -9 -20 -5 0 -7 9 -4 20 3 11 7 20 9 20 2 0 4 -9 4 -20z
m5 -50 c-11 -5 -31 -9 -45 -9 -23 0 -23 1 -5 9 11 5 31 9 45 9 23 0 23 -1 5
-9z m-2508 -382 c-3 -8 -6 -5 -6 6 -1 11 2 17 5 13 3 -3 4 -12 1 -19z m4193
-72 c0 -3 -4 -8 -10 -11 -5 -3 -10 -1 -10 4 0 6 5 11 10 11 6 0 10 -2 10 -4z
m-4300 -136 c0 -5 -7 -7 -15 -4 -8 4 -15 8 -15 10 0 2 7 4 15 4 8 0 15 -4 15
-10z m56 -1 c10 -17 -13 -36 -27 -22 -12 12 -4 33 11 33 5 0 12 -5 16 -11z
m31 -41 c-3 -7 -5 -2 -5 12 0 14 2 19 5 13 2 -7 2 -19 0 -25z m-31 -20 c-3 -7
-9 -21 -12 -30 -7 -20 -20 -23 -29 -7 -4 6 1 19 11 29 22 22 38 26 30 8z m24
-43 c0 -8 -4 -15 -10 -15 -5 0 -10 7 -10 15 0 8 5 15 10 15 6 0 10 -7 10 -15z
m-63 -37 c1 -12 -3 -30 -8 -41 -8 -13 -8 -22 0 -30 7 -7 7 -14 0 -24 -17 -20
-38 -16 -36 7 1 11 5 20 10 20 5 0 8 19 7 43 -2 56 -2 57 13 51 7 -2 14 -14
14 -26z m3393 -13 c0 -8 -4 -15 -10 -15 -5 0 -10 7 -10 15 0 8 5 15 10 15 6 0
10 -7 10 -15z m-3430 -15 c0 -11 -4 -20 -10 -20 -5 0 -10 9 -10 20 0 11 5 20
10 20 6 0 10 -9 10 -20z m-234 -66 c-4 -9 -9 -15 -11 -12 -3 3 -3 13 1 22 4 9
9 15 11 12 3 -3 3 -13 -1 -22z m204 -4 c0 -5 -4 -10 -10 -10 -5 0 -10 5 -10
10 0 6 5 10 10 10 6 0 10 -4 10 -10z m4123 -118 c-13 -24 -23 -50 -23 -57 0
-9 -9 -14 -22 -13 -13 1 -32 -2 -44 -5 -15 -5 -26 0 -42 18 -20 23 -21 28 -8
40 8 8 18 15 21 15 4 0 28 22 55 49 61 62 74 66 80 27 3 -21 -2 -45 -17 -74z
m-4123 73 c0 -8 -7 -15 -15 -15 -9 0 -12 6 -9 15 4 8 10 15 15 15 5 0 9 -7 9
-15z m-215 -5 c-3 -5 -14 -10 -23 -10 -15 0 -15 2 -2 10 20 13 33 13 25 0z
m25 -41 c0 -5 19 -9 42 -9 54 0 42 -12 -17 -16 -34 -3 -45 0 -45 11 0 8 -9 15
-21 15 -11 0 -18 4 -15 9 7 10 56 2 56 -10z m-53 -25 c-3 -3 -12 -4 -19 -1 -8
3 -5 6 6 6 11 1 17 -2 13 -5z m-59 -26 c-6 -18 -25 -20 -31 -3 -5 10 0 15 14
15 12 0 19 -5 17 -12z m1792 8 c0 -2 -8 -10 -17 -17 -16 -13 -17 -12 -4 4 13
16 21 21 21 13z m-1840 -36 c0 -5 -9 -10 -19 -10 -11 0 -23 5 -26 10 -4 6 5
10 19 10 14 0 26 -4 26 -10z m-160 -100 c0 -5 -12 -10 -27 -10 -22 0 -25 2
-13 10 20 13 40 13 40 0z m-183 -6 c-3 -3 -12 -4 -19 -1 -8 3 -5 6 6 6 11 1
17 -2 13 -5z m4740 -66 c-3 -8 -6 -5 -6 6 -1 11 2 17 5 13 3 -3 4 -12 1 -19z
m-887 -18 c-8 -5 -17 -7 -19 -4 -3 3 1 9 9 14 8 5 17 7 19 4 3 -3 -1 -9 -9
-14z m787 14 c-3 -3 -12 -4 -19 -1 -8 3 -5 6 6 6 11 1 17 -2 13 -5z m-4487
-13 c0 -16 -44 -43 -49 -30 -2 6 3 16 10 21 10 6 7 7 -10 3 -16 -5 -21 -4 -17
4 9 13 66 15 66 2z m-84 -89 c-13 -12 -17 8 -9 44 l8 39 3 -39 c2 -21 1 -41
-2 -44z m-112 47 c-3 -5 -10 -7 -15 -3 -5 3 -7 10 -3 15 3 5 10 7 15 3 5 -3 7
-10 3 -15z m3913 5 c-3 -3 -12 -4 -19 -1 -8 3 -5 6 6 6 11 1 17 -2 13 -5z
m-3707 -34 c0 -5 -4 -10 -10 -10 -5 0 -10 5 -10 10 0 6 5 10 10 10 6 0 10 -4
10 -10z m-133 -22 c-3 -8 -6 -5 -6 6 -1 11 2 17 5 13 3 -3 4 -12 1 -19z m-87
-8 c0 -11 -7 -20 -15 -20 -27 0 -18 30 13 39 1 1 2 -8 2 -19z m217 4 c-3 -3
-12 -4 -19 -1 -8 3 -5 6 6 6 11 1 17 -2 13 -5z m-137 -42 c0 -13 -3 -12 -15 4
-19 25 -19 40 0 24 8 -7 15 -20 15 -28z m4927 22 c-3 -3 -12 -4 -19 -1 -8 3
-5 6 6 6 11 1 17 -2 13 -5z m-5057 -39 c0 -8 -4 -15 -10 -15 -5 0 -10 7 -10
15 0 8 5 15 10 15 6 0 10 -7 10 -15z m3940 1 c0 -3 -4 -8 -10 -11 -5 -3 -10
-1 -10 4 0 6 5 11 10 11 6 0 10 -2 10 -4z m-3985 -67 c0 -9 -12 -15 -32 -16
-22 -1 -33 3 -33 13 0 7 6 11 14 8 8 -3 17 0 21 6 9 15 30 7 30 -11z m55 5 c0
-9 -7 -14 -17 -12 -25 5 -28 28 -4 28 12 0 21 -6 21 -16z m-173 -26 c-3 -8 -6
-5 -6 6 -1 11 2 17 5 13 3 -3 4 -12 1 -19z m4104 -15 c13 -15 12 -15 -8 -4
-24 12 -29 21 -14 21 5 0 15 -7 22 -17z m-3971 -13 c0 -11 -4 -20 -10 -20 -5
0 -10 9 -10 20 0 11 5 20 10 20 6 0 10 -9 10 -20z m5187 14 c-3 -3 -12 -4 -19
-1 -8 3 -5 6 6 6 11 1 17 -2 13 -5z m-5310 -60 c-3 -3 -12 -4 -19 -1 -8 3 -5
6 6 6 11 1 17 -2 13 -5z m41 -61 c5 -17 -26 -29 -40 -15 -6 6 -7 15 -3 22 9
14 37 9 43 -7z m-801 -55 c-3 -8 -6 -5 -6 6 -1 11 2 17 5 13 3 -3 4 -12 1 -19z
m720 0 c-3 -8 -6 -5 -6 6 -1 11 2 17 5 13 3 -3 4 -12 1 -19z m-73 -57 c3 -4
-6 -6 -19 -3 -14 2 -25 6 -25 8 0 8 39 4 44 -5z m-31 -88 c-7 -2 -19 -2 -25 0
-7 3 -2 5 12 5 14 0 19 -2 13 -5z m41 -33 c43 -16 22 -36 -39 -36 -30 -1 -55
3 -55 7 0 5 18 9 40 9 43 0 55 16 18 23 -14 3 -16 5 -6 6 9 0 28 -3 42 -9z
m-115 -39 c-3 -6 -10 -7 -18 -2 -7 5 -10 14 -6 21 9 14 29 -2 24 -19z m-80 -7
c11 -11 -7 -10 -34 3 l-30 14 30 -6 c16 -4 32 -9 34 -11z m4221 -14 c0 -5 -2
-10 -4 -10 -3 0 -8 5 -11 10 -3 6 -1 10 4 10 6 0 11 -4 11 -10z m-4273 -26
c-3 -4 -14 -3 -24 0 -15 6 -15 8 -3 16 16 10 39 -4 27 -16z m98 -15 l-8 -24
-8 24 c-10 27 -2 48 13 33 6 -6 7 -20 3 -33z m4085 -33 c0 -3 -4 -8 -10 -11
-5 -3 -10 -1 -10 4 0 6 5 11 10 11 6 0 10 -2 10 -4z m740 -41 c0 -8 -4 -15
-10 -15 -5 0 -10 7 -10 15 0 8 5 15 10 15 6 0 10 -7 10 -15z m-4873 -29 c-12
-13 -20 -13 -53 -1 l-39 14 53 1 c46 0 52 -2 39 -14z m5743 -16 c0 -5 -5 -10
-11 -10 -5 0 -7 5 -4 10 3 6 8 10 11 10 2 0 4 -4 4 -10z m-6010 -40 c0 -5 -4
-10 -10 -10 -5 0 -10 5 -10 10 0 6 5 10 10 10 6 0 10 -4 10 -10z m64 -5 c-4
-8 -13 -15 -21 -15 -13 0 -13 3 -3 15 7 8 16 15 21 15 5 0 6 -7 3 -15z m5971
5 c3 -5 2 -10 -4 -10 -5 0 -13 5 -16 10 -3 6 -2 10 4 10 5 0 13 -4 16 -10z
m231 -18 c-18 -16 -18 -16 -6 6 6 13 14 21 18 18 3 -4 -2 -14 -12 -24z m-226
-33 c0 -5 -4 -9 -10 -9 -5 0 -10 7 -10 16 0 8 5 12 10 9 6 -3 10 -10 10 -16z
m78 -28 c3 -8 -1 -12 -9 -9 -7 2 -15 10 -17 17 -3 8 1 12 9 9 7 -2 15 -10 17
-17z m94 -48 c-3 -16 -7 -22 -10 -15 -4 13 4 42 11 42 2 0 2 -12 -1 -27z
m-6132 7 c0 -5 -2 -10 -4 -10 -3 0 -8 5 -11 10 -3 6 -1 10 4 10 6 0 11 -4 11
-10z m10 -24 c0 -11 -19 -15 -25 -6 -3 5 1 10 9 10 9 0 16 -2 16 -4z m-116
-99 c-3 -8 -12 -18 -20 -21 -11 -4 -11 0 2 20 18 26 28 27 18 1z m6213 1 c-3
-8 -6 -5 -6 6 -1 11 2 17 5 13 3 -3 4 -12 1 -19z m-6127 -27 c7 -13 7 -22 0
-26 -5 -3 -10 -1 -10 4 0 6 -15 12 -32 13 l-33 1 35 5 c33 5 34 5 10 12 -23 8
-24 8 -3 9 13 1 27 -8 33 -18z m-165 -11 c3 -6 -1 -7 -9 -4 -18 7 -21 14 -7
14 6 0 13 -4 16 -10z m39 -49 c-10 -10 -21 -17 -23 -15 -6 6 20 34 32 34 6 0
2 -8 -9 -19z m46 4 c0 -8 -4 -15 -10 -15 -5 0 -7 7 -4 15 4 8 8 15 10 15 2 0
4 -7 4 -15z m7 -47 c-3 -8 -6 -5 -6 6 -1 11 2 17 5 13 3 -3 4 -12 1 -19z m-17
-19 c0 -11 -4 -17 -10 -14 -5 3 -10 13 -10 21 0 8 5 14 10 14 6 0 10 -9 10
-21z m6300 -26 c-1 -11 -26 -43 -34 -43 -10 0 -7 25 6 38 13 13 28 16 28 5z
m47 -9 c-3 -3 -12 -4 -19 -1 -8 3 -5 6 6 6 11 1 17 -2 13 -5z m13 -33 c0 -5
-7 -12 -16 -15 -22 -9 -24 -8 -24 9 0 8 9 15 20 15 11 0 20 -4 20 -9z m-42
-29 c6 -18 -15 -14 -22 4 -4 10 -1 14 6 12 6 -2 14 -10 16 -16z m172 -22 c0
-5 -7 -10 -16 -10 -8 0 -12 5 -9 10 3 6 10 10 16 10 5 0 9 -4 9 -10z m-1019
-27 c13 -16 12 -17 -3 -4 -10 7 -18 15 -18 17 0 8 8 3 21 -13z m-5526 -36 c16
-5 15 -5 -4 -4 -14 1 -26 9 -28 17 -3 10 -2 11 4 4 4 -7 17 -14 28 -17z m6575
3 c0 -5 -4 -10 -10 -10 -5 0 -10 5 -10 10 0 6 5 10 10 10 6 0 10 -4 10 -10z
m-910 -25 c13 -16 3 -20 -24 -9 -9 3 -13 10 -10 15 8 13 20 11 34 -6z m-32
-24 c29 -13 51 -26 49 -28 -5 -5 -117 47 -117 54 0 3 3 3 8 1 4 -2 31 -14 60
-27z m-5741 -33 c-3 -8 -6 -5 -6 6 -1 11 2 17 5 13 3 -3 4 -12 1 -19z m6703 0
c0 -4 -9 -8 -20 -8 -11 0 -20 4 -20 8 0 4 9 8 20 8 11 0 20 -4 20 -8z m-856
-13 c18 -14 18 -15 2 -15 -9 0 -24 7 -32 15 -21 20 4 20 30 0z m824 -14 c14
-8 -28 -21 -71 -21 -27 0 -10 17 23 23 14 2 27 5 30 5 3 1 11 -2 18 -7z m-883
-19 c-3 -3 -11 0 -18 7 -9 10 -8 11 6 5 10 -3 15 -9 12 -12z m155 -14 c0 -6
-6 -5 -15 2 -8 7 -15 14 -15 16 0 2 7 1 15 -2 8 -4 15 -11 15 -16z m780 12 c0
-5 -7 -7 -15 -4 -8 4 -15 8 -15 10 0 2 7 4 15 4 8 0 15 -4 15 -10z m-964 -33
c16 -8 40 -19 54 -25 l25 -11 -27 2 c-16 1 -28 4 -28 8 0 4 -13 9 -30 13 -16
3 -30 10 -30 16 0 13 1 13 36 -3z m872 6 c-10 -2 -26 -2 -35 0 -10 3 -2 5 17
5 19 0 27 -2 18 -5z m-80 -12 c8 -5 12 -16 10 -24 -2 -13 -7 -12 -27 8 -23 25
-12 35 17 16z m36 -45 c-3 -21 -8 -35 -11 -32 -2 2 -1 20 3 40 3 21 8 35 11
32 2 -2 1 -20 -3 -40z m46 24 c0 -11 -4 -20 -10 -20 -5 0 -10 9 -10 20 0 11 5
20 10 20 6 0 10 -9 10 -20z m40 10 c0 -5 -4 -10 -10 -10 -5 0 -10 5 -10 10 0
6 5 10 10 10 6 0 10 -4 10 -10z m-980 -21 c0 -14 -16 -11 -29 5 -10 12 -8 13
8 9 12 -3 21 -9 21 -14z m-5550 -14 c0 -9 -9 -15 -25 -15 -14 0 -28 0 -32 -1
-4 0 -9 5 -12 12 -2 6 0 9 5 7 5 -3 18 -2 29 3 30 11 35 11 35 -6z m5445 -5
c3 -5 -1 -10 -10 -10 -9 0 -13 5 -10 10 3 6 8 10 10 10 2 0 7 -4 10 -10z
m1105 -20 c0 -5 -4 -10 -10 -10 -5 0 -10 5 -10 10 0 6 5 10 10 10 6 0 10 -4
10 -10z m-140 -15 c-6 -8 -9 -23 -5 -36 5 -16 3 -20 -6 -16 -8 2 -13 10 -11
17 1 7 -2 18 -8 25 -8 10 -7 14 7 18 32 8 36 7 23 -8z m-659 -12 c13 -15 12
-15 -8 -4 -24 12 -29 21 -14 21 5 0 15 -7 22 -17z m-5791 -13 c0 -5 -4 -10 -9
-10 -5 0 -11 -8 -14 -17 -4 -17 -4 -17 -12 1 -5 12 -3 21 6 27 19 12 29 11 29
-1z m6510 -10 c0 -5 -4 -10 -10 -10 -5 0 -10 5 -10 10 0 6 5 10 10 10 6 0 10
-4 10 -10z m-6520 -50 c-20 -13 -43 -13 -35 0 3 6 16 10 28 10 18 0 19 -2 7
-10z m6454 -10 c-10 -4 -21 -6 -24 -3 -8 7 24 22 34 16 5 -4 1 -10 -10 -13z
m143 -17 c-3 -10 -5 -4 -5 12 0 17 2 24 5 18 2 -7 2 -21 0 -30z m113 27 c0 -5
-2 -10 -4 -10 -3 0 -8 5 -11 10 -3 6 -1 10 4 10 6 0 11 -4 11 -10z m-143 -32
c-3 -7 -5 -2 -5 12 0 14 2 19 5 13 2 -7 2 -19 0 -25z m-50 5 c-9 -9 -19 -14
-23 -11 -10 10 6 28 24 28 15 0 15 -1 -1 -17z m-47 -11 c0 -4 -9 -8 -20 -8
-22 0 -27 12 -7 19 14 5 27 -1 27 -11z m-560 -22 c0 -19 -1 -19 -20 -3 -11 10
-20 19 -20 20 0 2 9 3 20 3 13 0 20 -7 20 -20z m680 -30 c0 -5 -4 -10 -9 -10
-5 0 -18 -3 -28 -6 -16 -6 -16 -5 2 9 23 19 35 21 35 7z m-413 -6 c-3 -3 -12
-4 -19 -1 -8 3 -5 6 6 6 11 1 17 -2 13 -5z m-22 -14 c19 -8 19 -9 -2 -9 -12
-1 -25 4 -28 9 -7 12 2 12 30 0z m386 -16 c15 -19 21 -47 8 -38 -5 3 -9 10 -9
16 0 6 -8 17 -17 24 -10 7 -13 14 -7 14 6 0 18 -7 25 -16z m-6616 -44 c3 -5 1
-10 -4 -10 -6 0 -11 5 -11 10 0 6 2 10 4 10 3 0 8 -4 11 -10z m6298 -10 c3
-11 1 -20 -4 -20 -5 0 -9 6 -9 14 0 8 -8 17 -17 19 -14 4 -14 5 3 6 14 1 24
-6 27 -19z m484 -12 c-3 -7 -5 -2 -5 12 0 14 2 19 5 13 2 -7 2 -19 0 -25z
m-91 -9 c19 -22 19 -22 -3 -10 -24 12 -39 31 -25 31 5 0 17 -10 28 -21z m-539
-5 c-3 -3 -12 -4 -19 -1 -8 3 -5 6 6 6 11 1 17 -2 13 -5z m609 -34 c9 0 13 -4
10 -9 -3 -5 1 -11 9 -15 8 -3 15 -10 15 -15 0 -15 -31 -1 -58 25 -16 15 -19
23 -10 27 7 2 15 0 16 -4 2 -5 10 -9 18 -9z m-566 -20 c0 -5 -2 -10 -4 -10 -3
0 -8 5 -11 10 -3 6 -1 10 4 10 6 0 11 -4 11 -10z m361 -70 c2 -14 10 -30 18
-36 11 -8 6 -10 -20 -7 -25 3 -30 2 -19 -6 8 -5 18 -7 24 -4 5 3 6 1 2 -5 -3
-6 2 -13 11 -15 10 -3 6 -4 -9 -4 -15 1 -24 6 -21 11 4 5 0 7 -8 4 -8 -3 -20
1 -27 8 -11 12 -9 16 10 23 23 9 23 9 -22 24 -10 4 -7 6 6 6 27 1 38 26 18 41
-8 7 -14 9 -14 5 0 -5 -2 -6 -5 -3 -3 3 -3 12 1 21 5 14 10 12 29 -11 13 -15
25 -39 26 -52z m-4257 36 c-3 -9 -10 -16 -15 -16 -6 0 -5 9 1 21 13 24 24 20
14 -5z m4103 -2 c-3 -3 -12 -4 -19 -1 -8 3 -5 6 6 6 11 1 17 -2 13 -5z m455
-23 c40 -34 7 -43 -36 -10 -14 11 -24 25 -21 29 7 11 32 2 57 -19z m-386 -18
c-7 -7 -26 7 -26 19 0 6 6 6 15 -2 9 -7 13 -15 11 -17z m-4018 -38 c0 -25 5
-51 11 -59 9 -11 9 -20 2 -35 -14 -25 -14 -71 -1 -71 6 0 10 -5 10 -11 0 -5
-5 -7 -10 -4 -6 4 -17 -10 -25 -29 -9 -20 -19 -36 -24 -36 -10 0 -2 42 10 50
4 3 11 18 15 34 6 26 6 27 -15 14 -11 -7 -21 -18 -21 -25 0 -7 -6 -13 -14 -13
-9 0 -12 7 -9 20 3 11 10 20 17 20 6 0 17 12 24 27 16 35 15 44 -3 37 -8 -4
-15 -1 -15 5 0 6 4 11 9 11 15 0 24 40 12 54 -7 9 -6 19 5 34 8 12 17 22 19
22 2 0 4 -20 3 -45z m4029 -1 c-3 -3 -12 -4 -19 -1 -8 3 -5 6 6 6 11 1 17 -2
13 -5z m489 -46 c32 -29 71 -67 88 -84 17 -17 45 -38 62 -47 16 -8 39 -28 50
-43 20 -28 38 -48 70 -75 24 -21 118 -128 122 -140 2 -5 -1 -9 -7 -9 -6 0 -11
4 -11 8 0 4 -12 15 -28 24 -28 17 -193 174 -208 200 -5 7 -57 55 -116 106 -60
52 -108 98 -108 103 0 22 33 5 86 -43z m-364 -19 c26 -11 43 -43 31 -62 -3 -5
-12 2 -20 17 -7 14 -21 26 -29 26 -8 0 -13 4 -10 8 3 5 -8 6 -25 4 -16 -2 -29
0 -29 6 0 13 48 13 82 1z m-4661 -31 c0 -10 2 -10 6 0 2 6 11 12 18 12 11 0
11 -6 2 -30 -6 -16 -17 -30 -25 -30 -7 0 -18 -13 -23 -30 -6 -17 -18 -30 -28
-30 -21 0 -43 -34 -35 -55 5 -11 0 -18 -15 -22 -11 -3 -21 -10 -21 -15 0 -6
-9 -8 -20 -5 -11 3 -20 2 -20 -3 0 -4 -11 -10 -25 -12 -17 -4 -25 -1 -25 8 0
8 6 14 13 14 7 0 18 14 24 30 6 17 19 30 28 30 9 0 14 4 11 8 -14 23 -15 70
-2 81 12 10 13 8 9 -8 -3 -12 -1 -21 6 -21 6 0 11 6 11 13 0 15 78 77 97 77 7
0 13 -6 14 -12z m-235 -55 c-10 -10 -19 5 -10 18 6 11 8 11 12 0 2 -7 1 -15
-2 -18z m4930 -2 c-20 -8 -20 -8 0 -14 10 -4 30 -14 44 -22 18 -11 20 -15 8
-15 -9 0 -23 6 -30 13 -7 7 -21 16 -31 20 -22 8 -13 27 11 26 14 0 14 -2 -2
-8z m60 -13 c-4 7 -1 12 8 12 9 0 16 -7 16 -16 0 -20 -41 -15 -48 6 -5 13 -3
13 13 0 11 -9 16 -10 11 -2z m239 -17 c-3 -6 -11 -11 -17 -11 -6 0 -6 6 2 15
14 17 26 13 15 -4z m-161 -17 c3 -8 10 -13 15 -9 5 3 12 1 16 -5 11 -18 -22
-10 -40 10 -10 11 -13 20 -8 20 6 0 14 -7 17 -16z m-4282 -12 c9 -9 9 -12 -1
-12 -8 0 -19 -8 -26 -17 -11 -14 -12 -12 -11 14 1 31 16 37 38 15z m4252 2 c8
-22 9 -21 -23 -26 -29 -4 -29 -4 -13 19 20 27 28 28 36 7z m53 -30 c-3 -3 -12
-4 -19 -1 -8 3 -5 6 6 6 11 1 17 -2 13 -5z m277 -66 c5 -10 7 -10 12 0 9 19
41 14 64 -10 23 -25 19 -38 -5 -14 -19 19 -39 22 -29 4 6 -10 4 -10 -8 0 -13
10 -19 10 -31 -3 -10 -9 -18 -11 -22 -5 -3 5 0 10 7 11 10 0 10 2 1 6 -15 5
-17 23 -4 23 5 0 12 -6 15 -12z m-284 -8 c0 -5 -2 -10 -4 -10 -3 0 -8 5 -11
10 -3 6 -1 10 4 10 6 0 11 -4 11 -10z m53 3 c-7 -2 -19 -2 -25 0 -7 3 -2 5 12
5 14 0 19 -2 13 -5z m2 -23 c-3 -5 -12 -7 -20 -3 -21 7 -19 13 6 13 11 0 18
-4 14 -10z m75 0 c0 -5 -4 -10 -10 -10 -5 0 -10 5 -10 10 0 6 5 10 10 10 6 0
10 -4 10 -10z m207 -16 c-3 -3 -12 -4 -19 -1 -8 3 -5 6 6 6 11 1 17 -2 13 -5z
m-7 -24 c0 -5 -5 -10 -11 -10 -5 0 -7 5 -4 10 3 6 8 10 11 10 2 0 4 -4 4 -10z
m46 -20 c8 0 14 -4 14 -10 0 -13 -17 -13 -25 0 -4 6 -11 8 -16 5 -5 -4 -6 2
-2 11 4 11 8 13 11 6 2 -7 10 -12 18 -12z m-179 -16 c-3 -3 -12 -4 -19 -1 -8
3 -5 6 6 6 11 1 17 -2 13 -5z m259 -22 c-9 -9 -37 8 -31 18 5 8 11 7 21 -1 8
-6 12 -14 10 -17z m-4816 8 c0 -5 -5 -10 -11 -10 -5 0 -7 5 -4 10 3 6 8 10 11
10 2 0 4 -4 4 -10z m4997 -69 c30 -29 22 -41 -8 -12 -13 12 -27 21 -31 21 -5
0 -6 5 -3 10 3 6 1 10 -4 10 -6 0 -11 5 -11 11 0 12 17 1 57 -40z m-5733 17
c-5 -8 0 -9 17 -5 22 5 22 5 7 -7 -10 -7 -18 -18 -18 -23 0 -5 -11 -20 -25
-33 -14 -13 -24 -29 -22 -34 2 -6 -4 -22 -14 -35 -11 -13 -19 -30 -19 -37 0
-8 -7 -14 -16 -14 -8 0 -12 5 -8 11 3 6 1 15 -6 19 -15 9 7 50 27 50 7 0 13 9
13 20 0 11 4 20 8 20 5 0 16 18 25 40 8 22 21 40 27 40 6 0 8 -5 4 -12z m5291
-8 c3 -5 1 -10 -4 -10 -6 0 -11 5 -11 10 0 6 2 10 4 10 3 0 8 -4 11 -10z m99
-35 c3 -9 0 -15 -10 -15 -9 0 -12 5 -8 11 5 8 -1 10 -19 7 -15 -3 -24 -1 -21
3 9 15 51 10 58 -6z m-5868 -16 c4 -7 -1 -16 -10 -21 -9 -5 -14 -13 -11 -19 6
-8 -17 -14 -39 -10 -5 1 -12 -2 -15 -7 -11 -17 -69 -22 -81 -7 -15 18 -5 35
21 35 10 0 19 4 19 8 0 5 19 13 43 19 59 14 65 14 73 2z m5888 -18 c3 -5 -1
-11 -9 -14 -9 -4 -12 -1 -8 9 6 16 10 17 17 5z m-6142 -41 c-22 -18 -22 -21
-8 -36 9 -9 23 -13 31 -10 9 3 25 -4 36 -15 14 -14 28 -19 44 -15 15 4 25 1
29 -9 8 -23 -62 -17 -75 7 -6 11 -21 18 -41 18 -23 0 -28 -3 -20 -12 8 -10 2
-13 -25 -14 -19 0 -39 -7 -44 -15 -9 -15 -13 -6 -9 25 1 10 -2 16 -8 13 -5 -4
-6 9 -3 31 6 34 9 37 46 43 69 11 72 10 47 -11z m203 -20 c3 -5 1 -10 -4 -10
-6 0 -11 5 -11 10 0 6 2 10 4 10 3 0 8 -4 11 -10z m6440 -41 c11 -17 2 -18
-19 -3 -17 12 -17 14 -4 14 9 0 20 -5 23 -11z m-6765 -29 c0 -5 -8 -10 -17
-10 -15 0 -16 2 -3 10 19 12 20 12 20 0z m736 -6 c-3 -9 -6 -18 -6 -20 0 -2
-7 -4 -15 -4 -18 0 -19 12 -3 28 17 17 31 15 24 -4z m-671 -64 c-20 -22 -35
-18 -34 8 0 11 3 12 6 5 7 -20 20 -15 28 10 4 14 8 17 12 9 3 -7 -3 -22 -12
-32z m95 31 c0 -14 -44 -21 -55 -9 -7 8 -6 9 2 4 6 -3 14 -2 18 4 8 12 35 13
35 1z m-310 -51 c0 -5 -4 -10 -10 -10 -5 0 -10 5 -10 10 0 6 5 10 10 10 6 0
10 -4 10 -10z m820 -142 c0 -16 -3 -19 -11 -11 -6 6 -8 16 -5 22 11 17 16 13
16 -11z m740 -99 c0 -5 -7 -9 -15 -9 -9 0 -15 9 -15 21 0 18 2 19 15 9 8 -7
15 -16 15 -21z m-1800 -58 c0 -9 -41 -23 -48 -16 -2 2 -2 7 1 12 7 11 47 14
47 4z m410 -5 c0 -3 -4 -8 -10 -11 -5 -3 -10 -1 -10 4 0 6 5 11 10 11 6 0 10
-2 10 -4z m-425 -55 c3 -5 1 -12 -5 -16 -5 -3 -10 1 -10 9 0 18 6 21 15 7z"/>
<path d="M4480 4980 c-13 -9 -13 -10 0 -9 8 1 26 5 40 9 l25 8 -25 1 c-14 0
-32 -4 -40 -9z"/>
<path d="M4585 4960 c-18 -8 -17 -9 8 -9 15 -1 27 4 27 9 0 12 -8 12 -35 0z"/>
<path d="M3478 6413 c7 -3 16 -2 19 1 4 3 -2 6 -13 5 -11 0 -14 -3 -6 -6z"/>
<path d="M4330 6259 c0 -5 5 -7 10 -4 6 3 10 8 10 11 0 2 -4 4 -10 4 -5 0 -10
-5 -10 -11z"/>
<path d="M4341 6204 c0 -11 3 -14 6 -6 3 7 2 16 -1 19 -3 4 -6 -2 -5 -13z"/>
<path d="M4318 6153 c7 -3 16 -2 19 1 4 3 -2 6 -13 5 -11 0 -14 -3 -6 -6z"/>
<path d="M2393 5291 c-17 -11 -33 -17 -35 -12 -2 4 -23 3 -48 -3 -25 -5 -37
-11 -27 -13 9 -3 17 -11 17 -18 0 -8 18 -18 43 -23 l42 -10 -50 -2 c-48 -2
-49 -2 -20 -12 77 -25 143 -29 130 -8 -3 4 12 3 33 -2 20 -5 51 -11 67 -13 17
-1 61 -10 100 -18 38 -9 74 -13 79 -10 5 3 6 1 3 -4 -4 -6 5 -13 21 -16 15 -3
36 -9 46 -13 14 -5 17 -4 12 4 -4 7 -1 12 9 12 8 0 18 -6 21 -14 6 -16 62 -42
70 -33 3 3 17 2 30 -3 17 -7 24 -6 24 3 0 8 3 7 9 -2 5 -8 17 -16 26 -17 15
-2 15 0 -1 24 l-17 27 27 -24 c14 -14 26 -19 26 -12 0 7 5 9 10 6 6 -4 5 5 -2
20 -6 14 -14 21 -18 15 -7 -11 -33 14 -63 60 -10 13 -17 21 -17 16 0 -5 -7 -3
-15 4 -8 6 -42 14 -75 17 -42 4 -57 9 -48 15 9 7 7 8 -9 5 -30 -7 -105 19 -77
26 10 2 -11 4 -49 3 -53 -1 -66 2 -62 13 4 9 -1 12 -15 8 -11 -3 -20 -2 -20 3
0 12 -52 5 -94 -13 -22 -10 -51 -20 -65 -23 -22 -4 -21 -3 5 10 34 15 58 41
28 29 -12 -4 -15 -3 -10 5 11 17 -5 15 -41 -7z m-26 -47 c-3 -3 -12 -4 -19 -1
-8 3 -5 6 6 6 11 1 17 -2 13 -5z m98 -4 c-11 -5 -29 -9 -40 -9 -17 -1 -17 1
-5 9 8 5 26 9 40 9 23 0 23 -1 5 -9z"/>
<path d="M3061 5094 c0 -11 3 -14 6 -6 3 7 2 16 -1 19 -3 4 -6 -2 -5 -13z"/>
<path d="M3606 5000 c12 -12 27 -21 33 -19 7 3 -3 13 -21 23 l-33 19 21 -23z"/>
<path d="M2454 4980 c-35 -8 -98 -49 -90 -58 3 -3 28 7 55 21 26 15 73 31 102
36 l54 9 -45 0 c-25 0 -59 -3 -76 -8z"/>
<path d="M2771 4974 c25 -8 55 -23 67 -34 12 -11 27 -20 33 -20 7 0 10 -3 7
-6 -4 -3 -26 1 -50 9 -23 8 -64 14 -90 13 -27 -1 -48 1 -48 5 0 3 -26 0 -57
-7 -31 -7 -59 -12 -61 -10 -1 2 -40 -10 -85 -26 -45 -17 -95 -31 -112 -32 -45
-2 -57 -17 -33 -40 13 -12 29 -17 48 -14 16 3 31 0 34 -6 2 -6 11 -2 19 9 20
27 71 52 130 63 43 9 47 8 40 -7 -4 -9 -8 -41 -8 -71 0 -64 32 -117 75 -126
14 -3 38 -11 53 -19 21 -11 34 -12 48 -5 11 6 36 8 57 5 20 -3 31 -2 25 1 -19
8 -16 27 3 20 8 -3 12 -2 9 4 -3 6 3 23 14 38 11 16 23 40 26 55 4 16 14 27
24 27 19 0 76 -59 76 -79 0 -24 23 -24 30 0 7 21 -8 61 -32 87 -18 18 -16 33
2 26 9 -4 15 0 15 9 0 8 5 17 12 19 18 6 -31 48 -87 74 -62 28 -159 54 -200
53 -27 -1 -26 -2 16 -15z m-41 -154 c0 -21 -24 -28 -35 -10 -8 14 3 30 21 30
8 0 14 -9 14 -20z"/>
<path d="M3720 4981 c0 -6 4 -13 10 -16 6 -3 7 1 4 9 -7 18 -14 21 -14 7z"/>
<path d="M1995 4970 c-3 -6 1 -7 9 -4 18 7 21 14 7 14 -6 0 -13 -4 -16 -10z"/>
<path d="M2986 4693 c-6 -14 -5 -15 5 -6 7 7 10 15 7 18 -3 3 -9 -2 -12 -12z"/>
<path d="M2919 4673 c0 -11 -3 -13 -6 -5 -7 17 -20 15 -20 -3 0 -18 28 -20 45
-3 16 16 15 28 -3 28 -8 0 -15 -8 -16 -17z"/>
<path d="M4180 4513 c0 -11 3 -14 8 -7 4 6 14 14 22 17 10 4 8 6 -7 6 -16 1
-23 -5 -23 -16z"/>
<path d="M3520 4360 c0 -11 4 -20 8 -20 4 0 8 9 8 20 0 11 -4 20 -8 20 -4 0
-8 -9 -8 -20z"/>
<path d="M3593 4195 c-7 -8 -10 -22 -6 -32 6 -14 8 -12 15 12 9 34 7 38 -9 20z"/>
<path d="M1950 3976 c0 -22 3 -27 11 -19 8 8 8 16 0 30 -9 16 -10 14 -11 -11z"/>
<path d="M5270 3966 c0 -8 5 -18 10 -21 6 -3 10 1 10 9 0 8 -4 18 -10 21 -5 3
-10 -1 -10 -9z"/>
<path d="M1900 3765 c0 -8 4 -15 9 -15 5 0 12 -10 14 -22 4 -20 4 -20 6 4 0
14 4 28 9 31 4 2 1 2 -5 1 -7 -2 -13 1 -13 6 0 6 -4 10 -10 10 -5 0 -10 -7
-10 -15z"/>
<path d="M2984 3729 c-8 -13 6 -30 18 -23 6 4 8 2 4 -4 -8 -14 6 -23 22 -13 7
4 10 15 7 23 -7 19 -42 30 -51 17z"/>
<path d="M5058 3715 c-3 -14 -1 -28 4 -31 13 -8 18 -1 24 30 3 18 0 26 -10 26
-7 0 -16 -11 -18 -25z"/>
<path d="M5120 3700 c0 -5 5 -10 10 -10 6 0 10 5 10 10 0 6 -4 10 -10 10 -5 0
-10 -4 -10 -10z"/>
<path d="M1925 3689 c-9 -14 -2 -20 14 -10 8 6 9 11 3 15 -6 3 -14 1 -17 -5z"/>
<path d="M1793 3603 c4 -3 2 -12 -4 -20 -9 -9 -8 -13 0 -13 6 0 11 2 11 4 0 2
3 11 6 20 4 10 1 16 -7 16 -7 0 -9 -3 -6 -7z"/>
<path d="M1853 3603 c-17 -6 -16 -23 1 -23 8 0 16 7 20 15 6 15 1 17 -21 8z"/>
<path d="M1510 3511 c0 -5 9 -7 20 -4 11 3 20 7 20 9 0 2 -9 4 -20 4 -11 0
-20 -4 -20 -9z"/>
<path d="M1447 3485 c-5 -11 0 -15 19 -15 16 0 24 5 22 13 -7 18 -35 20 -41 2z"/>
<path d="M1580 3461 c0 -10 50 -25 58 -16 8 7 1 11 -30 19 -16 3 -28 2 -28 -3z"/>
<path d="M1351 3371 c-8 -5 -9 -11 -3 -15 14 -8 43 4 36 15 -7 11 -15 11 -33
0z"/>
<path d="M4798 3363 c6 -2 18 -2 25 0 6 3 1 5 -13 5 -14 0 -19 -2 -12 -5z"/>
<path d="M1426 3341 c-13 -15 -15 -24 -8 -38 10 -17 11 -17 17 0 5 11 18 17
36 17 16 0 29 5 29 11 0 6 -8 8 -19 4 -12 -4 -23 0 -28 10 -8 14 -11 14 -27
-4z"/>
<path d="M5661 3324 c0 -11 3 -14 6 -6 3 7 2 16 -1 19 -3 4 -6 -2 -5 -13z"/>
<path d="M5836 3305 c14 -14 27 -25 29 -25 3 0 -1 11 -7 25 -6 14 -19 25 -29
25 -16 0 -15 -4 7 -25z"/>
<path d="M1295 3290 c-3 -5 1 -10 10 -10 9 0 13 5 10 10 -3 6 -8 10 -10 10 -2
0 -7 -4 -10 -10z"/>
<path d="M1415 3270 c4 -6 11 -8 16 -5 14 9 11 15 -7 15 -8 0 -12 -5 -9 -10z"/>
<path d="M1520 3259 c0 -5 5 -7 10 -4 6 3 10 8 10 11 0 2 -4 4 -10 4 -5 0 -10
-5 -10 -11z"/>
<path d="M4785 3250 c-3 -5 -1 -10 4 -10 6 0 11 5 11 10 0 6 -2 10 -4 10 -3 0
-8 -4 -11 -10z"/>
<path d="M1227 3233 c-14 -13 -6 -23 17 -23 14 0 36 -4 51 -10 17 -7 24 -7 20
0 -3 6 -12 10 -20 10 -7 0 -15 7 -19 15 -5 15 -37 21 -49 8z"/>
<path d="M1345 3230 c-3 -5 -1 -10 4 -10 6 0 11 5 11 10 0 6 -2 10 -4 10 -3 0
-8 -4 -11 -10z"/>
<path d="M1178 3203 c-24 -6 -23 -19 1 -26 15 -3 19 0 18 14 -1 11 -1 18 -2
18 0 -1 -8 -3 -17 -6z"/>
<path d="M1227 3193 c-16 -15 -6 -33 18 -33 27 0 32 9 13 28 -14 14 -22 15
-31 5z"/>
<path d="M1366 3191 c-4 -5 3 -7 14 -4 23 6 26 13 6 13 -8 0 -17 -4 -20 -9z"/>
<path d="M5573 3164 c-15 -16 -16 -24 -4 -24 8 0 24 30 19 35 -2 2 -9 -3 -15
-11z"/>
<path d="M2710 3153 c0 -12 139 -36 220 -38 36 0 74 -6 85 -12 21 -11 77 -21
154 -29 24 -3 52 -11 63 -19 15 -10 26 -11 43 -3 14 6 30 7 41 1 11 -5 29 -8
42 -7 12 0 22 -3 22 -8 0 -5 15 -7 32 -4 35 5 68 -15 68 -43 0 -12 3 -12 12
-3 15 15 48 16 48 1 0 -5 -4 -8 -9 -5 -7 4 -31 -34 -31 -49 0 -11 47 -4 75 11
17 9 45 16 63 16 19 0 32 5 32 13 0 8 9 10 26 7 14 -2 42 0 62 6 21 6 69 18
108 27 61 14 71 19 67 35 -10 39 -41 54 -111 56 -37 0 -93 4 -125 9 -31 4 -78
9 -105 11 -93 8 -107 9 -117 15 -17 11 -77 3 -85 -12 -7 -11 -10 -11 -15 3 -6
14 -35 16 -273 15 -147 0 -295 3 -329 8 -39 5 -63 4 -63 -2z"/>
<path d="M1110 3145 c0 -5 5 -17 10 -25 5 -8 10 -10 10 -5 0 6 -5 17 -10 25
-5 8 -10 11 -10 5z"/>
<path d="M1281 3134 c0 -11 3 -14 6 -6 3 7 2 16 -1 19 -3 4 -6 -2 -5 -13z"/>
<path d="M4826 3115 c4 -8 10 -12 15 -9 14 8 10 24 -6 24 -9 0 -12 -6 -9 -15z"/>
<path d="M5570 3043 c0 -22 2 -25 10 -13 13 20 13 40 0 40 -5 0 -10 -12 -10
-27z"/>
<path d="M3440 3000 c0 -5 5 -10 10 -10 6 0 10 5 10 10 0 6 -4 10 -10 10 -5 0
-10 -4 -10 -10z"/>
<path d="M5555 3000 c-3 -5 -1 -10 4 -10 6 0 11 5 11 10 0 6 -2 10 -4 10 -3 0
-8 -4 -11 -10z"/>
<path d="M5562 2960 c-7 -12 -10 -25 -7 -30 11 -18 20 -10 22 20 3 36 2 36
-15 10z"/>
<path d="M1048 2963 c7 -3 16 -2 19 1 4 3 -2 6 -13 5 -11 0 -14 -3 -6 -6z"/>
<path d="M968 2943 c6 -2 18 -2 25 0 6 3 1 5 -13 5 -14 0 -19 -2 -12 -5z"/>
<path d="M3440 2934 c0 -8 5 -12 10 -9 6 3 10 10 10 16 0 5 -4 9 -10 9 -5 0
-10 -7 -10 -16z"/>
<path d="M960 2910 c0 -5 7 -7 15 -4 8 4 15 8 15 10 0 2 -7 4 -15 4 -8 0 -15
-4 -15 -10z"/>
<path d="M6155 2910 c-3 -6 1 -7 9 -4 18 7 21 14 7 14 -6 0 -13 -4 -16 -10z"/>
<path d="M5552 2804 c0 -58 3 -102 8 -99 5 3 6 13 3 22 -5 12 -2 15 9 10 29
-10 33 41 6 70 -17 18 -18 23 -5 17 22 -8 23 19 1 40 -8 9 -13 20 -9 25 3 5 1
12 -3 15 -5 3 -9 -42 -10 -100z"/>
<path d="M855 2890 l-30 -8 27 -1 c15 0 30 4 33 9 3 6 5 9 3 9 -2 -1 -16 -5
-33 -9z"/>
<path d="M955 2880 c3 -5 10 -10 16 -10 5 0 9 5 9 10 0 6 -7 10 -16 10 -8 0
-12 -4 -9 -10z"/>
<path d="M6168 2883 c7 -3 16 -2 19 1 4 3 -2 6 -13 5 -11 0 -14 -3 -6 -6z"/>
<path d="M6210 2860 c0 -5 7 -10 15 -10 8 0 15 5 15 10 0 6 -7 10 -15 10 -8 0
-15 -4 -15 -10z"/>
<path d="M876 2733 c-6 -14 -5 -15 5 -6 7 7 10 15 7 18 -3 3 -9 -2 -12 -12z"/>
<path d="M6186 2711 c-4 -7 -5 -15 -2 -18 9 -9 19 4 14 18 -4 11 -6 11 -12 0z"/>
<path d="M740 2660 c-12 -8 -9 -10 13 -10 16 0 26 4 22 10 -8 12 -16 12 -35 0z"/>
<path d="M815 2660 c3 -5 8 -10 11 -10 2 0 4 5 4 10 0 6 -5 10 -11 10 -5 0 -7
-4 -4 -10z"/>
<path d="M690 2650 c0 -5 7 -10 15 -10 8 0 15 5 15 10 0 6 -7 10 -15 10 -8 0
-15 -4 -15 -10z"/>
<path d="M4525 2630 c-10 -11 -14 -20 -9 -20 13 0 41 20 29 20 -5 0 -3 5 5 10
8 5 10 10 4 10 -6 0 -19 -9 -29 -20z"/>
<path d="M715 2581 c-3 -5 -1 -12 5 -16 5 -3 10 1 10 9 0 18 -6 21 -15 7z"/>
<path d="M394 2350 c0 -11 2 -20 4 -20 1 0 12 9 24 20 l22 20 -25 0 c-18 0
-25 -5 -25 -20z"/>
<path d="M6268 2323 c7 -3 16 -2 19 1 4 3 -2 6 -13 5 -11 0 -14 -3 -6 -6z"/>
<path d="M480 2310 c0 -5 5 -10 11 -10 5 0 7 5 4 10 -3 6 -8 10 -11 10 -2 0
-4 -4 -4 -10z"/>
<path d="M6306 2312 c6 -4 14 -14 17 -22 4 -10 6 -8 6 8 1 15 -5 22 -16 22
-11 0 -14 -3 -7 -8z"/>
<path d="M6346 2261 c-4 -6 -12 -9 -17 -6 -14 9 -11 -5 6 -22 12 -11 21 -12
43 -5 15 6 21 11 13 11 -8 1 -19 8 -26 18 -9 11 -14 13 -19 4z"/>
<path d="M6260 2220 c0 -5 4 -10 9 -10 6 0 13 5 16 10 3 6 -1 10 -9 10 -9 0
-16 -4 -16 -10z"/>
<path d="M6384 2189 c-3 -6 -1 -16 5 -22 8 -8 11 -5 11 11 0 24 -5 28 -16 11z"/>
<path d="M400 2120 c0 -5 9 -10 19 -10 11 0 23 5 26 10 4 6 -5 10 -19 10 -14
0 -26 -4 -26 -10z"/>
<path d="M330 2065 c0 -8 5 -15 10 -15 6 0 10 7 10 15 0 8 -4 15 -10 15 -5 0
-10 -7 -10 -15z"/>
<path d="M6400 2054 c0 -8 5 -12 10 -9 6 4 8 11 5 16 -9 14 -15 11 -15 -7z"/>
<path d="M260 2050 c0 -5 5 -10 10 -10 6 0 10 5 10 10 0 6 -4 10 -10 10 -5 0
-10 -4 -10 -10z"/>
<path d="M307 2030 c3 -11 7 -20 9 -20 2 0 4 9 4 20 0 11 -4 20 -9 20 -5 0 -7
-9 -4 -20z"/>
<path d="M400 2040 c0 -5 5 -10 11 -10 5 0 7 5 4 10 -3 6 -8 10 -11 10 -2 0
-4 -4 -4 -10z"/>
<path d="M5740 1992 c0 -5 7 -13 16 -16 10 -4 14 -1 12 6 -5 15 -28 23 -28 10z"/>
<path d="M6495 1990 c3 -5 2 -10 -3 -10 -5 0 -12 -9 -15 -20 -3 -14 -1 -18 6
-13 7 4 22 6 35 4 27 -3 28 3 2 29 -21 21 -35 27 -25 10z"/>
<path d="M6110 1972 c0 -5 7 -17 16 -28 14 -17 15 -17 10 -1 -3 10 -6 23 -6
28 0 5 -4 9 -10 9 -5 0 -10 -4 -10 -8z"/>
<path d="M253 1963 c-7 -2 -13 -9 -13 -15 0 -14 43 -6 48 10 4 12 -12 15 -35
5z"/>
<path d="M307 1923 c-9 -2 -15 -9 -12 -14 9 -14 22 -11 29 6 3 8 4 14 3 14 -1
-1 -10 -3 -20 -6z"/>
<path d="M6130 1910 c0 -5 5 -10 10 -10 6 0 10 5 10 10 0 6 -4 10 -10 10 -5 0
-10 -4 -10 -10z"/>
<path d="M6503 1880 c-27 -11 -30 -25 -7 -34 25 -10 34 -7 34 9 0 8 7 15 15
15 8 0 15 5 15 10 0 12 -27 12 -57 0z"/>
<path d="M6137 1872 c-7 -10 40 -68 48 -60 4 4 -2 15 -12 25 -11 11 -17 25
-15 31 4 13 -14 17 -21 4z"/>
<path d="M6375 1850 c-3 -5 3 -10 14 -10 12 0 21 5 21 10 0 6 -6 10 -14 10 -8
0 -18 -4 -21 -10z"/>
<path d="M6435 1850 c-3 -5 1 -10 10 -10 9 0 13 5 10 10 -3 6 -8 10 -10 10 -2
0 -7 -4 -10 -10z"/>
<path d="M6500 1700 c0 -5 5 -10 10 -10 6 0 10 5 10 10 0 6 -4 10 -10 10 -5 0
-10 -4 -10 -10z"/>
<path d="M3090 1676 c7 -7 13 -7 20 0 6 6 3 10 -10 10 -13 0 -16 -4 -10 -10z"/>
<path d="M6510 1670 c0 -5 5 -10 10 -10 6 0 10 5 10 10 0 6 -4 10 -10 10 -5 0
-10 -4 -10 -10z"/>
<path d="M270 1630 c0 -5 5 -10 10 -10 6 0 10 5 10 10 0 6 -4 10 -10 10 -5 0
-10 -4 -10 -10z"/>
<path d="M308 1570 c-7 -24 -3 -38 8 -28 3 4 4 17 2 30 l-3 23 -7 -25z"/>
<path d="M6280 1580 c0 -5 5 -10 11 -10 5 0 7 5 4 10 -3 6 -8 10 -11 10 -2 0
-4 -4 -4 -10z"/>
<path d="M6314 1571 c3 -5 14 -11 25 -14 14 -3 18 -1 14 9 -3 8 -14 14 -25 14
-10 0 -17 -4 -14 -9z"/>
<path d="M2480 1536 c-98 -41 -189 -86 -195 -96 -3 -5 -13 -10 -21 -10 -18 0
-127 -61 -120 -67 3 -3 22 3 43 14 21 11 52 23 68 27 17 4 44 14 60 21 17 7
63 25 103 41 39 15 72 31 72 36 0 4 5 8 10 8 6 0 23 11 38 25 34 32 16 32 -58
1z"/>
<path d="M6295 1550 c3 -5 8 -10 11 -10 2 0 4 5 4 10 0 6 -5 10 -11 10 -5 0
-7 -4 -4 -10z"/>
<path d="M60 1540 c0 -5 5 -10 10 -10 6 0 10 5 10 10 0 6 -4 10 -10 10 -5 0
-10 -4 -10 -10z"/>
<path d="M166 1459 c3 -44 9 -57 22 -44 4 4 2 9 -3 12 -6 2 -9 19 -7 38 2 19
0 35 -6 35 -5 0 -8 -18 -6 -41z"/>
<path d="M6465 1450 c3 -5 11 -10 16 -10 6 0 7 5 4 10 -3 6 -11 10 -16 10 -6
0 -7 -4 -4 -10z"/>
<path d="M180 1398 c-21 -9 -22 -12 -8 -15 10 -3 25 3 34 11 18 18 10 19 -26
4z"/>
<path d="M6420 1380 c0 -5 5 -10 11 -10 5 0 7 5 4 10 -3 6 -8 10 -11 10 -2 0
-4 -4 -4 -10z"/>
<path d="M178 1363 c7 -3 16 -2 19 1 4 3 -2 6 -13 5 -11 0 -14 -3 -6 -6z"/>
<path d="M70 1343 c0 -12 8 -27 18 -33 11 -8 13 -13 5 -16 -9 -4 -9 -11 -1
-30 9 -19 9 -27 0 -33 -22 -13 -25 -66 -6 -86 12 -12 15 -20 7 -22 -7 -3 -9
-19 -5 -45 4 -36 3 -40 -12 -35 -12 5 -15 3 -10 -5 4 -7 7 -27 6 -45 -2 -24 2
-35 15 -40 10 -3 26 -13 37 -22 17 -15 18 -15 15 4 -3 11 -10 21 -17 21 -6 1
-17 2 -24 3 -9 1 -9 4 -1 12 8 8 17 7 32 -3 18 -11 23 -11 31 2 13 20 13 4 0
-21 -9 -17 -7 -19 16 -19 17 0 24 4 21 13 -2 6 -1 21 3 32 6 14 2 25 -14 37
-21 17 -21 18 14 19 19 1 27 3 18 6 -10 2 -18 9 -18 14 0 5 -9 9 -20 9 -11 0
-20 5 -20 10 0 6 10 8 24 4 34 -8 41 12 10 29 -17 9 -23 17 -15 21 16 10 14
26 -4 26 -23 0 -18 17 7 23 22 6 22 6 3 25 -14 13 -22 16 -27 8 -5 -6 -8 -1
-8 12 0 12 -4 22 -10 22 -5 0 -10 9 -10 19 0 13 9 21 30 26 17 4 30 12 30 18
-1 16 -76 50 -91 41 -6 -3 -15 0 -20 7 -6 11 -9 8 -9 -8z m70 -233 c0 -5 -7
-7 -15 -4 -8 4 -15 8 -15 10 0 2 7 4 15 4 8 0 15 -4 15 -10z m4 -69 c4 -36
-19 -57 -45 -40 -12 8 -10 12 8 28 12 10 20 21 17 24 -3 3 -3 11 1 17 10 16
14 9 19 -29z"/>
<path d="M2236 1343 c-3 -4 -14 -8 -22 -9 -30 -5 -44 -14 -44 -28 0 -11 5 -13
18 -8 28 11 66 41 61 47 -3 3 -9 2 -13 -2z"/>
<path d="M6878 1183 c7 -3 16 -2 19 1 4 3 -2 6 -13 5 -11 0 -14 -3 -6 -6z"/>
<path d="M6968 1103 c7 -3 16 -2 19 1 4 3 -2 6 -13 5 -11 0 -14 -3 -6 -6z"/>
<path d="M180 900 c0 -5 5 -10 11 -10 5 0 7 5 4 10 -3 6 -8 10 -11 10 -2 0 -4
-4 -4 -10z"/>
<path d="M110 885 c-6 -38 -6 -57 2 -61 5 -3 4 -12 -3 -20 -9 -11 -8 -14 5
-14 17 0 38 38 29 53 -2 4 1 7 6 7 6 0 11 5 11 10 0 6 -9 10 -19 10 -11 0 -22
6 -24 13 -3 6 -6 8 -7 2z"/>
<path d="M1427 883 c-10 -9 -9 -23 2 -23 5 0 11 7 15 15 5 15 -5 20 -17 8z"/>
<path d="M105 751 c-3 -5 -1 -12 5 -16 5 -3 10 1 10 9 0 18 -6 21 -15 7z"/>
<path d="M111 674 c0 -11 3 -14 6 -6 3 7 2 16 -1 19 -3 4 -6 -2 -5 -13z"/>
<path d="M255 650 c-3 -5 -1 -10 4 -10 6 0 11 5 11 10 0 6 -2 10 -4 10 -3 0
-8 -4 -11 -10z"/>
<path d="M76 625 c4 -8 10 -12 15 -9 14 8 10 24 -6 24 -9 0 -12 -6 -9 -15z"/>
<path d="M168 633 c7 -3 16 -2 19 1 4 3 -2 6 -13 5 -11 0 -14 -3 -6 -6z"/>
<path d="M200 595 c0 -9 5 -15 11 -13 6 2 11 8 11 13 0 5 -5 11 -11 13 -6 2
-11 -4 -11 -13z"/>
<path d="M255 580 c-3 -6 1 -13 10 -16 19 -8 30 0 20 15 -8 14 -22 14 -30 1z"/>
<path d="M73 569 c-8 -8 -8 -20 0 -42 8 -23 7 -32 -1 -35 -7 -2 -12 -8 -12
-13 0 -6 5 -7 11 -3 7 4 9 -1 5 -15 -3 -11 -9 -31 -12 -42 -4 -13 -2 -19 4
-15 5 3 12 0 15 -8 3 -8 -2 -17 -11 -21 -14 -5 -14 -7 -2 -15 26 -16 55 -11
65 12 6 12 17 24 25 26 8 3 12 1 8 -3 -4 -4 0 -14 10 -21 14 -11 14 -13 2 -14
-8 0 -28 -7 -45 -16 -16 -8 -36 -13 -45 -11 -11 3 -15 -6 -16 -38 -1 -39 0
-41 27 -39 16 1 29 -2 29 -7 0 -5 -8 -9 -17 -10 -11 0 -13 -3 -5 -6 6 -2 12
-11 12 -19 0 -9 5 -12 10 -9 6 3 10 15 10 25 0 13 5 17 14 14 20 -8 30 14 16
31 -10 12 -9 15 9 15 12 0 21 6 21 15 0 8 -8 15 -17 15 -12 0 -7 6 12 16 42
21 53 34 31 34 -14 0 -16 3 -7 14 12 14 57 11 79 -7 15 -12 25 -4 28 26 2 12
0 16 -3 9 -3 -9 -9 -10 -18 -2 -7 6 -32 12 -56 14 -27 2 -47 10 -55 22 -28 40
-35 44 -52 35 -14 -7 -17 -4 -19 21 -1 17 -10 36 -20 44 -12 9 -13 13 -5 14 7
0 10 5 7 10 -8 13 -18 13 -32 -1z"/>
<path d="M155 570 c-3 -6 1 -7 9 -4 18 7 21 14 7 14 -6 0 -13 -4 -16 -10z"/>
<path d="M200 566 c0 -2 9 -6 20 -9 11 -3 20 -1 20 4 0 5 -9 9 -20 9 -11 0
-20 -2 -20 -4z"/>
<path d="M200 520 c0 -5 5 -10 10 -10 6 0 10 5 10 10 0 6 -4 10 -10 10 -5 0
-10 -4 -10 -10z"/>
<path d="M240 466 c0 -9 5 -16 10 -16 6 0 10 4 10 9 0 6 -4 13 -10 16 -5 3
-10 -1 -10 -9z"/>
<path d="M290 470 c0 -6 6 -10 13 -10 8 0 7 -3 -3 -10 -8 -5 -11 -12 -7 -16 6
-6 47 27 47 38 0 2 -11 5 -25 6 -14 1 -25 -3 -25 -8z"/>
<path d="M365 360 c-3 -5 -1 -10 4 -10 6 0 11 5 11 10 0 6 -2 10 -4 10 -3 0
-8 -4 -11 -10z"/>
<path d="M233 335 c-10 -11 -9 -15 8 -20 11 -4 23 -4 26 -1 4 3 -2 6 -12 6
-14 0 -15 3 -5 15 16 19 -1 19 -17 0z"/>
</g>
</svg>
